<?xml version="1.0" encoding="UTF-8" standalone="no"?>
<!DOCTYPE svg PUBLIC "-//W3C//DTD SVG 1.1//EN" "http://www.w3.org/Graphics/SVG/1.1/DTD/svg11.dtd">
<svg xmlns="http://www.w3.org/2000/svg" version="1.1" viewBox="0.00 0.00 343.00 253.00">
<g stroke-width="2.00" fill="none" stroke-linecap="butt">
<path stroke="#d8c3b8" vector-effect="non-scaling-stroke" d="
  M 110.79 30.50
  L 110.81 37.72
  Q 110.81 38.29 110.26 38.38
  L 89.29 41.81
  A 0.56 0.56 0.0 0 1 88.64 41.26
  L 88.60 34.47"
/>
<path stroke="#8ea4bb" vector-effect="non-scaling-stroke" d="
  M 156.47 31.26
  Q 155.83 32.03 154.71 32.27
  Q 141.26 35.18 127.75 37.77
  C 125.00 38.29 120.03 38.21 121.29 42.26"
/>
<path stroke="#bdcbd7" vector-effect="non-scaling-stroke" d="
  M 121.29 42.26
  L 121.16 79.82
  A 0.44 0.44 0.0 0 0 121.73 80.24
  L 156.47 69.13"
/>
<path stroke="#726b63" vector-effect="non-scaling-stroke" d="
  M 141.50 84.04
  L 111.05 94.70"
/>
<path stroke="#d8c3b8" vector-effect="non-scaling-stroke" d="
  M 111.05 94.70
  L 110.94 86.82
  A 0.53 0.52 -6.0 0 0 110.31 86.32
  L 89.17 90.69
  Q 88.76 90.78 88.76 91.19
  L 88.69 102.51"
/>
<path stroke="#726b63" vector-effect="non-scaling-stroke" d="
  M 88.69 102.51
  L 81.24 105.20
  Q 80.81 105.36 80.81 104.90
  L 80.66 68.47"
/>
<path stroke="#675956" vector-effect="non-scaling-stroke" d="
  M 88.69 102.51
  L 88.75 109.90
  Q 88.76 110.51 89.33 110.30
  L 110.70 102.34
  A 0.74 0.72 79.3 0 0 111.17 101.64
  L 111.05 94.70"
/>
<path stroke="#5d5a5d" vector-effect="non-scaling-stroke" d="
  M 106.09 110.88
  L 91.98 112.04
  Q 91.80 112.06 91.75 112.24
  Q 91.72 112.37 91.71 112.50"
/>
<path stroke="#5d5a5d" vector-effect="non-scaling-stroke" d="
  M 61.20 114.52
  L 61.27 69.56"
/>
<path stroke="#cbe0f4" vector-effect="non-scaling-stroke" d="
  M 135.04 39.64
  Q 134.40 39.71 134.04 40.06
  Q 133.69 40.41 133.95 40.82
  L 134.25 41.29"
/>
<path stroke="#a8bad1" vector-effect="non-scaling-stroke" d="
  M 134.25 41.29
  L 134.26 42.69"
/>
<path stroke="#cbe0f4" vector-effect="non-scaling-stroke" d="
  M 134.26 42.69
  Q 134.11 42.72 133.95 42.74
  Q 133.88 42.75 133.88 42.82
  L 134.00 62.50
  A 1.03 1.03 0.0 0 0 134.42 63.33
  L 135.36 64.04
  Q 136.10 64.59 135.25 64.94
  L 134.30 65.34
  Q 133.88 65.51 133.89 65.98
  L 134.13 73.30
  A 0.41 0.41 0.0 0 0 134.91 73.46
  Q 135.65 71.96 137.43 72.27
  Q 137.93 72.36 138.42 72.22
  L 148.31 69.35
  Q 148.68 69.24 148.84 68.90
  L 149.34 67.88
  A 0.71 0.70 -54.9 0 1 150.47 67.68
  C 151.22 68.41 151.68 68.40 152.65 67.96
  Q 155.31 66.75 158.20 66.16
  Q 158.71 66.05 158.69 65.53
  L 158.39 59.47"
/>
<path stroke="#a8bad1" vector-effect="non-scaling-stroke" d="
  M 158.39 59.47
  Q 158.03 58.94 158.02 58.03"
/>
<path stroke="#cbe0f4" vector-effect="non-scaling-stroke" d="
  M 158.02 58.03
  Q 158.50 58.07 158.54 57.75
  Q 159.04 52.98 158.74 47.79
  C 158.49 43.47 159.37 38.91 158.74 34.26"
/>
<path stroke="#689acd" vector-effect="non-scaling-stroke" d="
  M 160.27 35.51
  Q 159.99 35.21 159.98 34.74
  Q 159.96 34.26 159.47 34.26
  L 158.74 34.26"
/>
<path stroke="#9cb9d8" vector-effect="non-scaling-stroke" d="
  M 158.74 34.26
  Q 149.24 36.37 140.38 38.40
  C 139.64 38.57 139.53 38.43 138.84 38.25
  A 0.98 0.95 33.6 0 0 138.04 38.40
  Q 136.56 39.47 135.04 39.64"
/>
<path stroke="#689acd" vector-effect="non-scaling-stroke" d="
  M 135.04 39.64
  Q 131.81 39.33 128.50 40.38
  A 0.41 0.40 82.0 0 1 127.97 39.98
  L 128.01 38.80
  A 0.41 0.41 0.0 0 0 127.29 38.53
  Q 126.62 39.35 127.26 40.02
  Q 127.77 40.56 127.05 40.75
  L 121.29 42.26"
/>
<path stroke="#748e88" vector-effect="non-scaling-stroke" d="
  M 104.29 116.75
  Q 103.67 117.91 103.55 119.29
  Q 103.50 119.95 104.13 119.73
  Q 107.10 118.70 109.11 120.70
  A 1.31 1.31 0.0 0 1 108.19 122.94
  L 89.71 123.03
  Q 89.09 123.03 89.15 122.41
  L 89.50 119.05"
/>
<path stroke="#dcd9dc" vector-effect="non-scaling-stroke" d="
  M 158.02 58.03
  Q 157.12 57.78 157.06 58.64
  Q 157.04 58.95 157.25 59.18
  Q 157.58 59.55 158.39 59.47"
/>
<path stroke="#dcd9dc" vector-effect="non-scaling-stroke" d="
  M 134.26 42.69
  Q 135.52 43.40 135.96 42.12
  A 0.89 0.89 0.0 0 0 135.28 40.95
  Q 134.78 40.86 134.25 41.29"
/>
<path stroke="#458475" vector-effect="non-scaling-stroke" d="
  M 155.07 116.14
  Q 130.22 120.64 105.57 125.38
  Q 99.66 126.51 93.82 126.61
  Q 66.67 127.04 39.49 126.53"
/>
<path stroke="#98a3b6" vector-effect="non-scaling-stroke" d="
  M 229.59 122.83
  L 230.81 129.68"
/>
<path stroke="#7993b4" vector-effect="non-scaling-stroke" d="
  M 230.81 129.68
  L 230.70 130.18"
/>
<path stroke="#98a3b6" vector-effect="non-scaling-stroke" d="
  M 230.70 130.18
  L 222.87 156.55"
/>
<path stroke="#5999b1" vector-effect="non-scaling-stroke" d="
  M 222.87 156.55
  L 188.22 155.98"
/>
<path stroke="#5999b1" vector-effect="non-scaling-stroke" d="
  M 174.93 155.71
  L 179.75 164.65"
/>
<path stroke="#346e84" vector-effect="non-scaling-stroke" d="
  M 190.14 183.46
  L 192.46 188.25
  Q 192.70 188.75 192.50 189.27
  L 190.50 194.54"
/>
<path stroke="#8ea4bb" vector-effect="non-scaling-stroke" d="
  M 190.50 194.54
  L 187.75 197.46"
/>
<path stroke="#937386" vector-effect="non-scaling-stroke" d="
  M 187.75 197.46
  Q 182.84 201.54 176.34 202.59"
/>
<path stroke="#9cb4cf" vector-effect="non-scaling-stroke" d="
  M 176.34 202.59
  L 174.03 202.27
  Q 173.54 202.21 173.36 201.74
  Q 170.94 195.52 168.83 189.18
  Q 168.61 188.53 168.00 188.21"
/>
<path stroke="#4a8aa1" vector-effect="non-scaling-stroke" d="
  M 156.06 122.68
  L 155.07 116.14"
/>
<path stroke="#346e84" vector-effect="non-scaling-stroke" d="
  M 155.07 116.14
  L 154.86 112.00"
/>
<path stroke="#adcbc0" vector-effect="non-scaling-stroke" d="
  M 130.13 188.27
  C 129.71 190.62 129.49 198.13 125.69 197.27
  A 2.56 2.56 0.0 0 1 123.75 194.29
  L 124.95 188.15"
/>
<path stroke="#adcbc0" vector-effect="non-scaling-stroke" d="
  M 97.31 188.02
  L 103.74 222.72"
/>
<path stroke="#94a99e" vector-effect="non-scaling-stroke" d="
  M 103.74 222.72
  Q 103.26 224.24 103.58 226.03"
/>
<path stroke="#adcbc0" vector-effect="non-scaling-stroke" d="
  M 103.58 226.03
  Q 103.18 227.31 101.35 227.30"
/>
<path stroke="#79b1be" vector-effect="non-scaling-stroke" d="
  M 101.35 227.30
  Q 99.07 225.85 98.63 222.70"
/>
<path stroke="#adcbc0" vector-effect="non-scaling-stroke" d="
  M 98.63 222.70
  L 92.00 187.93"
/>
<path stroke="#a48977" vector-effect="non-scaling-stroke" d="
  M 46.69 205.65
  Q 45.85 204.19 44.59 205.15"
/>
<path stroke="#7b8a7d" vector-effect="non-scaling-stroke" d="
  M 44.59 205.15
  L 43.78 204.20"
/>
<path stroke="#a48977" vector-effect="non-scaling-stroke" d="
  M 43.78 204.20
  L 41.79 203.30"
/>
<path stroke="#d8c3ba" vector-effect="non-scaling-stroke" d="
  M 231.86 168.66
  Q 230.10 165.34 227.20 162.65
  Q 226.65 162.15 226.97 162.82
  C 228.16 165.40 230.06 166.81 231.86 168.66"
/>
<path stroke="#b8c9b6" vector-effect="non-scaling-stroke" d="
  M 224.21 164.50
  Q 222.80 160.93 222.87 156.55"
/>
<path stroke="#d8c3ba" vector-effect="non-scaling-stroke" d="
  M 230.70 130.18
  L 233.82 129.33
  Q 234.79 129.06 233.87 128.66
  Q 232.57 128.09 230.81 129.68"
/>
<path stroke="#97afa3" vector-effect="non-scaling-stroke" d="
  M 200.56 188.18
  L 200.53 218.40"
/>
<path stroke="#458475" vector-effect="non-scaling-stroke" d="
  M 200.53 218.40
  L 192.50 218.52"
/>
<path stroke="#8e6d5a" vector-effect="non-scaling-stroke" d="
  M 192.50 218.52
  Q 192.40 208.29 190.71 198.25"
/>
<path stroke="#899e8f" vector-effect="non-scaling-stroke" d="
  M 190.71 198.25
  L 190.50 194.54"
/>
<path stroke="#a48977" vector-effect="non-scaling-stroke" d="
  M 192.50 218.52
  C 190.42 221.94 188.18 220.10 185.79 218.63"
/>
<path stroke="#d8c3ba" vector-effect="non-scaling-stroke" d="
  M 208.97 103.67
  Q 213.06 103.97 216.59 102.12
  Q 217.02 101.90 217.10 101.58
  Q 217.20 101.17 216.94 100.74"
/>
<path stroke="#e2c2b3" vector-effect="non-scaling-stroke" d="
  M 219.47 104.51
  L 213.47 106.01
  A 0.34 0.33 -53.0 0 0 213.56 106.67
  L 219.47 106.41"
/>
<path stroke="#98a3b6" vector-effect="non-scaling-stroke" d="
  M 201.54 125.15
  C 197.38 130.73 190.54 139.10 183.11 139.44
  C 177.47 139.71 173.89 136.85 175.76 130.74
  Q 177.39 125.42 181.96 108.25"
/>
<path stroke="#549485" vector-effect="non-scaling-stroke" d="
  M 200.58 164.51
  L 190.39 164.58"
/>
<path stroke="#e8a391" vector-effect="non-scaling-stroke" d="
  M 190.71 198.25
  L 187.75 197.46"
/>
<path stroke="#f2a38c" vector-effect="non-scaling-stroke" d="
  M 242.86 100.27
  Q 236.61 105.44 228.54 105.53
  Q 228.00 105.54 228.05 106.08
  L 229.59 122.83"
/>
<path stroke="#937386" vector-effect="non-scaling-stroke" d="
  M 229.59 122.83
  Q 215.67 126.34 201.54 125.15"
/>
<path stroke="#f2a38c" vector-effect="non-scaling-stroke" d="
  M 201.54 125.15
  Q 203.83 121.74 206.16 118.19
  C 208.31 114.92 214.47 118.62 216.33 115.34
  A 0.71 0.71 0.0 0 0 215.59 114.29
  L 212.38 114.85
  A 0.15 0.14 31.3 0 1 212.31 114.57
  L 218.05 112.81
  A 1.18 1.18 0.0 0 0 217.71 110.50
  L 212.57 110.49
  A 0.23 0.23 0.0 0 1 212.53 110.03
  C 215.07 109.57 220.17 110.86 219.47 106.41"
/>
<path stroke="#dd9283" vector-effect="non-scaling-stroke" d="
  M 219.47 106.41
  L 219.47 104.51"
/>
<path stroke="#f2a38c" vector-effect="non-scaling-stroke" d="
  M 219.47 104.51
  Q 221.17 101.67 218.70 99.47
  Q 218.31 99.12 217.81 99.28
  L 217.22 99.46"
/>
<path stroke="#c29aa3" vector-effect="non-scaling-stroke" d="
  M 217.22 99.46
  L 217.91 92.21"
/>
<path stroke="#937386" vector-effect="non-scaling-stroke" d="
  M 217.91 92.21
  Q 218.83 91.33 218.42 90.19
  Q 218.23 89.66 217.66 89.66
  L 209.24 89.69"
/>
<path stroke="#cbdbec" vector-effect="non-scaling-stroke" d="
  M 98.63 222.70
  Q 98.16 227.14 101.35 227.30"
/>
<path stroke="#e6d3cc" vector-effect="non-scaling-stroke" d="
  M 103.58 226.03
  Q 104.37 224.49 103.74 222.72"
/>
<path stroke="#f6b4a5" vector-effect="non-scaling-stroke" d="
  M 176.34 202.59
  Q 179.41 211.69 185.79 218.63"
/>
<path stroke="#adcbc0" vector-effect="non-scaling-stroke" d="
  M 185.79 218.63
  C 177.22 218.37 166.59 216.04 164.77 225.00"
/>
<path stroke="#97afa3" vector-effect="non-scaling-stroke" d="
  M 164.77 225.00
  Q 160.61 226.50 162.18 230.67
  Q 162.34 231.09 162.71 231.34
  C 168.12 235.13 171.83 227.74 167.00 225.46"
/>
<path stroke="#adcbc0" vector-effect="non-scaling-stroke" d="
  M 167.00 225.46
  Q 167.39 224.44 168.25 224.86
  Q 168.70 225.08 169.20 225.08
  L 211.90 225.15"
/>
<path stroke="#f6b4a5" vector-effect="non-scaling-stroke" d="
  M 54.03 233.23
  Q 54.99 230.15 54.25 226.79"
/>
<path stroke="#f1e5da" vector-effect="non-scaling-stroke" d="
  M 54.25 226.79
  Q 55.03 222.17 53.54 217.75"
/>
<path stroke="#fffaf7" vector-effect="non-scaling-stroke" d="
  M 53.54 217.75
  Q 53.38 217.09 53.62 216.53"
/>
<path stroke="#f6b4a5" vector-effect="non-scaling-stroke" d="
  M 53.62 216.53
  L 50.93 209.91"
/>
<path stroke="#c47362" vector-effect="non-scaling-stroke" d="
  M 43.78 204.20
  Q 42.92 205.78 41.40 206.45
  A 0.46 0.46 0.0 0 1 40.75 205.99
  Q 40.78 205.54 40.73 205.09
  A 0.35 0.35 0.0 0 0 40.03 205.16
  L 40.33 208.30
  A 0.65 0.64 88.0 0 1 39.68 209.00
  Q 38.46 208.99 38.07 210.09
  Q 37.84 210.73 38.50 210.58
  L 41.24 209.94
  Q 41.82 209.80 41.88 209.21
  Q 42.15 206.65 44.59 205.15"
/>
<path stroke="#f6b9ae" vector-effect="non-scaling-stroke" d="
  M 53.62 216.53
  C 44.93 211.92 41.81 228.91 52.68 227.68
  Q 53.26 227.62 53.79 226.75"
/>
<path stroke="#e8a391" vector-effect="non-scaling-stroke" d="
  M 53.79 226.75
  L 54.25 226.79"
/>
<path stroke="#f6b9ae" vector-effect="non-scaling-stroke" d="
  M 41.00 233.21
  C 41.10 224.87 29.90 225.46 30.17 233.41"
/>
<path stroke="#f6b4a5" vector-effect="non-scaling-stroke" d="
  M 22.75 233.21
  Q 23.36 229.13 22.46 225.06"
/>
<path stroke="#f6b9ae" vector-effect="non-scaling-stroke" d="
  M 23.32 223.84
  C 30.01 224.60 31.37 215.19 24.68 213.15"
/>
<path stroke="#adcbc0" vector-effect="non-scaling-stroke" d="
  M 219.62 218.36
  L 200.53 218.40"
/>
<path stroke="#458475" vector-effect="non-scaling-stroke" d="
  M 225.99 224.52
  Q 224.30 224.76 223.69 225.23"
/>
<path stroke="#458475" vector-effect="non-scaling-stroke" d="
  M 167.00 225.46
  L 164.77 225.00"
/>
<path stroke="#c7cad2" vector-effect="non-scaling-stroke" d="
  M 217.22 99.46
  Q 216.90 99.84 216.94 100.74"
/>
<path stroke="#a8bad1" vector-effect="non-scaling-stroke" d="
  M 216.94 100.74
  C 216.04 102.48 210.85 103.23 208.97 103.67"
/>
<path stroke="#c7cad2" vector-effect="non-scaling-stroke" d="
  M 208.97 103.67
  L 203.22 102.75
  Q 202.68 102.67 202.42 102.19
  Q 201.43 100.35 201.76 98.01"
/>
<path stroke="#937386" vector-effect="non-scaling-stroke" d="
  M 207.37 89.20
  Q 204.80 89.89 201.79 89.32
  Q 201.30 89.23 200.92 89.55
  Q 199.30 90.92 201.07 92.15"
/>
<path stroke="#c29aa3" vector-effect="non-scaling-stroke" d="
  M 201.07 92.15
  L 201.76 98.01"
/>
<path stroke="#f2a38c" vector-effect="non-scaling-stroke" d="
  M 201.76 98.01
  Q 201.02 97.58 200.42 97.79
  Q 199.84 97.99 199.83 98.61
  L 199.71 106.43
  A 3.20 3.17 70.0 0 1 198.63 108.78
  L 187.85 118.34
  A 0.11 0.11 0.0 0 1 187.69 118.19
  C 190.70 114.43 195.49 110.88 198.35 108.60
  Q 199.83 107.42 199.06 105.12
  Q 198.93 104.72 198.51 104.65
  Q 191.45 103.53 184.82 100.64"
/>
<path stroke="#689acd" vector-effect="non-scaling-stroke" d="
  M 217.91 92.21
  L 201.07 92.15"
/>
<path stroke="#8e6d5a" vector-effect="non-scaling-stroke" d="
  M 209.76 81.56
  Q 208.40 84.53 209.24 89.69"
/>
<path stroke="#346e84" vector-effect="non-scaling-stroke" d="
  M 209.24 89.69
  L 207.37 89.20"
/>
<path stroke="#8e6d5a" vector-effect="non-scaling-stroke" d="
  M 207.37 89.20
  L 206.50 81.71"
/>
<path stroke="#7c6a5e" vector-effect="non-scaling-stroke" d="
  M 221.82 60.20
  Q 224.87 64.10 230.19 64.78"
/>
<path stroke="#f2a38c" vector-effect="non-scaling-stroke" d="
  M 220.10 81.32
  Q 215.86 84.16 211.59 82.12
  Q 211.06 81.87 211.00 81.29"
/>
<path stroke="#f1eae2" vector-effect="non-scaling-stroke" d="
  M 53.54 217.75
  Q 54.37 222.26 53.79 226.75"
/>
<path stroke="#7c6a5e" vector-effect="non-scaling-stroke" d="
  M 217.80 59.90
  Q 212.57 64.67 205.19 64.54"
/>
<path stroke="#2e514a" vector-effect="non-scaling-stroke" d="
  M 213.00 58.71
  L 205.19 64.54"
/>
<path stroke="#a9baa7" vector-effect="non-scaling-stroke" d="
  M 205.19 64.54
  Q 204.93 64.74 204.46 64.75"
/>
<path stroke="#2e514a" vector-effect="non-scaling-stroke" d="
  M 230.21 63.25
  L 221.82 60.20"
/>
<path stroke="#a9baa7" vector-effect="non-scaling-stroke" d="
  M 221.82 60.20
  Q 221.39 59.16 217.80 59.90"
/>
<path stroke="#2e514a" vector-effect="non-scaling-stroke" d="
  M 217.80 59.90
  Q 217.07 59.04 215.05 58.63"
/>
<path stroke="#458475" vector-effect="non-scaling-stroke" d="
  M 215.05 58.63
  Q 218.41 57.07 219.94 54.81
  A 0.92 0.91 12.3 0 0 219.03 53.40
  Q 215.74 53.95 214.05 56.87
  Q 213.73 57.43 213.48 56.84
  L 211.95 53.28"
/>
<path stroke="#18352d" vector-effect="non-scaling-stroke" d="
  M 215.05 58.63
  Q 214.25 58.27 213.00 58.71"
/>
<path stroke="#458475" vector-effect="non-scaling-stroke" d="
  M 213.00 58.71
  Q 210.24 57.58 208.04 55.29"
/>
<path stroke="#2e514a" vector-effect="non-scaling-stroke" d="
  M 37.95 197.66
  Q 38.23 198.18 37.49 198.36"
/>
<path stroke="#845a50" vector-effect="non-scaling-stroke" d="
  M 277.72 176.51
  C 275.72 180.98 272.30 192.06 275.86 196.24
  Q 276.22 196.67 276.67 196.34
  C 279.79 194.05 281.74 186.41 283.18 183.48"
/>
<path stroke="#c9a392" vector-effect="non-scaling-stroke" d="
  M 302.52 190.80
  L 300.86 194.26
  A 1.50 1.48 57.5 0 0 300.73 194.87
  Q 300.83 200.97 306.09 203.67
  A 1.49 1.47 -38.2 0 0 307.14 203.79
  C 313.61 202.14 314.03 198.61 316.75 193.29"
/>
<path stroke="#845a50" vector-effect="non-scaling-stroke" d="
  M 258.82 193.47
  L 256.04 188.44"
/>
<path stroke="#d8c3b8" vector-effect="non-scaling-stroke" d="
  M 110.70 59.82
  A 0.30 0.30 0.0 0 0 110.95 59.52
  L 110.75 42.82
  A 0.30 0.30 0.0 0 0 110.41 42.53
  L 89.00 46.06
  A 0.30 0.30 0.0 0 0 88.75 46.35
  L 88.75 63.76
  A 0.30 0.30 0.0 0 0 89.11 64.05
  L 110.70 59.82"
/>
<path stroke="#d8c3b8" vector-effect="non-scaling-stroke" d="
  M 110.51 80.67
  A 0.33 0.33 0.0 0 0 110.77 80.34
  L 110.83 64.40
  A 0.33 0.33 0.0 0 0 110.43 64.07
  L 89.01 68.55
  A 0.33 0.33 0.0 0 0 88.75 68.87
  L 88.75 84.95
  A 0.33 0.33 0.0 0 0 89.15 85.27
  L 110.51 80.67"
/>
<path stroke="#689acd" vector-effect="non-scaling-stroke" d="
  M 124.76 40.13
  Q 124.80 41.09 125.41 40.35
  L 126.23 39.35
  A 0.40 0.40 0.0 0 0 125.84 38.70
  Q 124.70 38.93 124.76 40.13"
/>
<path stroke="#689acd" vector-effect="non-scaling-stroke" d="
  M 123.2183 41.0099
  A 0.69 0.51 114.1 0 0 123.9655 40.5882
  A 0.69 0.51 114.1 0 0 123.7817 39.7501
  A 0.69 0.51 114.1 0 0 123.0345 40.1718
  A 0.69 0.51 114.1 0 0 123.2183 41.0099"
/>
<path stroke="#cbe0f4" vector-effect="non-scaling-stroke" d="
  M 123.25 49.89
  A 0.53 0.53 0.0 0 0 123.91 50.41
  L 130.10 48.78
  A 0.53 0.53 0.0 0 0 130.50 48.27
  L 130.50 42.38
  A 0.53 0.53 0.0 0 0 129.85 41.86
  L 123.66 43.29
  A 0.53 0.53 0.0 0 0 123.25 43.80
  L 123.25 49.89"
/>
<path stroke="#cbe0f4" vector-effect="non-scaling-stroke" d="
  M 123.56 52.17
  A 0.33 0.33 0.0 0 0 123.33 52.48
  L 123.25 59.13
  A 0.33 0.33 0.0 0 0 123.68 59.44
  L 130.27 57.24
  A 0.33 0.33 0.0 0 0 130.50 56.92
  L 130.50 50.42
  A 0.33 0.33 0.0 0 0 130.07 50.11
  L 123.56 52.17"
/>
<path stroke="#cbe0f4" vector-effect="non-scaling-stroke" d="
  M 123.26 67.86
  A 0.35 0.35 0.0 0 0 123.71 68.19
  L 130.25 66.19
  A 0.35 0.35 0.0 0 0 130.50 65.85
  L 130.50 59.01
  A 0.35 0.35 0.0 0 0 130.05 58.68
  L 123.50 60.65
  A 0.35 0.35 0.0 0 0 123.25 60.99
  L 123.26 67.86"
/>
<path stroke="#cbe0f4" vector-effect="non-scaling-stroke" d="
  M 123.23 75.78
  Q 123.15 76.23 123.27 76.68
  Q 123.41 77.20 123.92 77.03
  L 129.81 75.09
  Q 130.50 74.86 130.50 74.14
  L 130.50 68.05
  A 0.50 0.50 0.0 0 0 129.83 67.58
  L 123.72 69.72
  Q 123.24 69.88 123.25 70.39
  L 123.26 75.31
  Q 123.27 75.54 123.23 75.78"
/>
<path stroke="#dcd9dc" vector-effect="non-scaling-stroke" d="
  M 156.5613 37.8818
  A 0.70 0.49 103.1 0 0 157.1972 37.3111
  A 0.70 0.49 103.1 0 0 156.8787 36.5182
  A 0.70 0.49 103.1 0 0 156.2428 37.0889
  A 0.70 0.49 103.1 0 0 156.5613 37.8818"
/>
<path stroke="#cdb9b4" vector-effect="non-scaling-stroke" d="
  M 152.01 38.14
  L 151.34 38.00
  A 0.29 0.28 -87.1 0 0 151.00 38.31
  L 151.06 38.95
  A 0.52 0.52 0.0 0 0 152.02 39.16
  L 152.27 38.74
  A 0.40 0.40 0.0 0 0 152.01 38.14"
/>
<path stroke="#cdb9b4" vector-effect="non-scaling-stroke" d="
  M 138.1607 40.7672
  A 0.89 0.59 105.6 0 0 138.9683 40.0687
  A 0.89 0.59 105.6 0 0 138.6393 39.0528
  A 0.89 0.59 105.6 0 0 137.8317 39.7513
  A 0.89 0.59 105.6 0 0 138.1607 40.7672"
/>
<path stroke="#dcd9dc" vector-effect="non-scaling-stroke" d="
  M 157.63 40.26
  Q 158.15 39.82 157.06 39.81
  A 0.47 0.45 -76.3 0 0 156.63 40.08
  L 156.52 40.32
  A 0.46 0.46 0.0 0 0 157.13 40.94
  Q 157.46 40.79 157.50 40.51
  A 0.41 0.34 77.7 0 1 157.63 40.26"
/>
<path stroke="#cdb9b4" vector-effect="non-scaling-stroke" d="
  M 147.92 41.24
  Q 148.95 41.12 148.74 40.19
  A 0.35 0.34 63.3 0 0 148.18 40.00
  L 147.60 40.51
  A 0.42 0.42 0.0 0 0 147.92 41.24"
/>
<path stroke="#dcd9dc" vector-effect="non-scaling-stroke" d="
  M 140.2139 45.7582
  A 0.87 0.51 93.7 0 0 140.7789 44.9229
  A 0.87 0.51 93.7 0 0 140.3261 44.0218
  A 0.87 0.51 93.7 0 0 139.7611 44.8571
  A 0.87 0.51 93.7 0 0 140.2139 45.7582"
/>
<path stroke="#cdb9b4" vector-effect="non-scaling-stroke" d="
  M 149.42 46.15
  Q 149.13 46.51 149.30 46.89
  A 0.51 0.51 0.0 0 0 150.00 47.15
  Q 150.26 47.02 150.33 46.84
  A 0.61 0.54 78.6 0 0 149.42 46.15"
/>
<path stroke="#dcd9dc" vector-effect="non-scaling-stroke" d="
  M 157.48 47.87
  Q 157.81 48.18 158.11 47.75
  A 0.48 0.48 0.0 0 0 157.71 47.00
  L 156.95 47.00
  Q 156.34 47.00 156.67 47.51
  Q 156.85 47.80 157.16 47.77
  Q 157.34 47.75 157.48 47.87"
/>
<path stroke="#cdb9b4" vector-effect="non-scaling-stroke" d="
  M 137.33 48.00
  A 0.71 0.71 0.0 0 0 136.62 47.29
  A 0.71 0.71 0.0 0 0 135.91 48.00
  A 0.71 0.71 0.0 0 0 136.62 48.71
  A 0.71 0.71 0.0 0 0 137.33 48.00"
/>
<path stroke="#cdb9b4" vector-effect="non-scaling-stroke" d="
  M 139.16 49.21
  Q 138.87 49.81 139.54 49.76
  L 140.09 49.72
  A 0.43 0.43 0.0 0 0 140.36 48.99
  L 140.01 48.64
  Q 139.62 48.24 139.38 48.74
  L 139.16 49.21"
/>
<path stroke="#cdb9b4" vector-effect="non-scaling-stroke" d="
  M 144.55 52.02
  Q 145.37 51.24 144.55 50.71
  Q 143.73 50.18 143.97 51.12
  L 144.18 51.92
  Q 144.28 52.29 144.55 52.02"
/>
<path stroke="#dcd9dc" vector-effect="non-scaling-stroke" d="
  M 157.59 50.57
  Q 156.51 51.21 157.40 52.03
  A 0.38 0.37 17.7 0 0 158.03 51.71
  L 157.90 50.72
  Q 157.86 50.41 157.59 50.57"
/>
<path stroke="#cdb9b4" vector-effect="non-scaling-stroke" d="
  M 138.16 53.63
  Q 138.70 54.50 139.51 54.03
  A 0.79 0.61 -65.2 0 0 139.20 52.65
  L 138.33 53.05
  A 0.41 0.40 61.7 0 0 138.16 53.63"
/>
<path stroke="#dcd9dc" vector-effect="non-scaling-stroke" d="
  M 149.99 54.25
  A 0.74 0.52 0.0 0 0 149.25 53.73
  A 0.74 0.52 0.0 0 0 148.51 54.25
  A 0.74 0.52 0.0 0 0 149.25 54.77
  A 0.74 0.52 0.0 0 0 149.99 54.25"
/>
<path stroke="#dcd9dc" vector-effect="non-scaling-stroke" d="
  M 137.01 55.13
  Q 136.47 54.74 135.72 54.73
  A 0.65 0.59 43.8 0 0 135.81 55.97
  L 136.70 56.01
  A 0.49 0.49 0.0 0 0 137.01 55.13"
/>
<path stroke="#dcd9dc" vector-effect="non-scaling-stroke" d="
  M 144.17 55.19
  Q 143.94 54.93 143.70 55.18
  L 143.31 55.56
  A 0.68 0.61 -83.6 0 0 144.06 56.61
  Q 144.89 55.95 144.17 55.19"
/>
<path stroke="#dcd9dc" vector-effect="non-scaling-stroke" d="
  M 156.08 55.75
  A 0.71 0.71 0.0 0 0 155.37 55.04
  A 0.71 0.71 0.0 0 0 154.66 55.75
  A 0.71 0.71 0.0 0 0 155.37 56.46
  A 0.71 0.71 0.0 0 0 156.08 55.75"
/>
<path stroke="#e6d8d5" vector-effect="non-scaling-stroke" d="
  M 149.1639 58.2443
  A 0.84 0.63 104.2 0 0 149.9808 57.5845
  A 0.84 0.63 104.2 0 0 149.5761 56.6157
  A 0.84 0.63 104.2 0 0 148.7592 57.2755
  A 0.84 0.63 104.2 0 0 149.1639 58.2443"
/>
<path stroke="#dcd9dc" vector-effect="non-scaling-stroke" d="
  M 140.0601 58.4241
  A 0.71 0.66 135.9 0 0 141.0293 58.4040
  A 0.71 0.66 135.9 0 0 141.0799 57.4359
  A 0.71 0.66 135.9 0 0 140.1107 57.4560
  A 0.71 0.66 135.9 0 0 140.0601 58.4241"
/>
<path stroke="#cdb9b4" vector-effect="non-scaling-stroke" d="
  M 146.4943 60.3845
  A 0.78 0.50 -11.5 0 0 145.6303 60.0500
  A 0.78 0.50 -11.5 0 0 144.9657 60.6955
  A 0.78 0.50 -11.5 0 0 145.8297 61.0300
  A 0.78 0.50 -11.5 0 0 146.4943 60.3845"
/>
<path stroke="#cdb9b4" vector-effect="non-scaling-stroke" d="
  M 151.69 61.06
  Q 151.93 61.38 152.36 61.06
  A 0.52 0.51 47.2 0 0 152.39 60.26
  Q 151.95 59.86 151.26 59.99
  A 0.50 0.50 0.0 0 0 151.27 60.98
  Q 151.37 60.99 151.69 61.06"
/>
<path stroke="#dcd9dc" vector-effect="non-scaling-stroke" d="
  M 136.78 61.22
  A 0.37 0.37 0.0 0 0 136.25 61.56
  L 136.25 62.19
  A 0.51 0.51 0.0 0 0 137.26 62.26
  Q 137.38 61.51 136.78 61.22"
/>
<path stroke="#dcd9dc" vector-effect="non-scaling-stroke" d="
  M 156.7086 63.6852
  A 0.86 0.69 36.8 0 0 156.4333 62.6175
  A 0.86 0.69 36.8 0 0 155.3314 62.6548
  A 0.86 0.69 36.8 0 0 155.6067 63.7225
  A 0.86 0.69 36.8 0 0 156.7086 63.6852"
/>
<path stroke="#e6d8d5" vector-effect="non-scaling-stroke" d="
  M 142.86 64.47
  Q 143.05 64.38 143.17 64.19
  Q 143.28 64.01 143.23 63.80
  Q 143.11 63.33 142.62 63.04
  A 0.74 0.73 29.3 0 0 141.61 63.32
  Q 141.13 64.19 141.89 64.70
  Q 141.99 64.77 142.10 64.77
  Q 142.22 64.77 142.32 64.74
  Q 142.34 64.73 142.86 64.47"
/>
<path stroke="#dcd9dc" vector-effect="non-scaling-stroke" d="
  M 149.0772 65.2646
  A 0.85 0.74 106.6 0 0 150.0292 64.6614
  A 0.85 0.74 106.6 0 0 149.5628 63.6354
  A 0.85 0.74 106.6 0 0 148.6108 64.2386
  A 0.85 0.74 106.6 0 0 149.0772 65.2646"
/>
<path stroke="#dcd9dc" vector-effect="non-scaling-stroke" d="
  M 138.26 65.62
  Q 139.26 66.32 139.43 65.04
  A 0.53 0.53 0.0 0 0 138.53 64.60
  L 138.20 64.93
  A 0.45 0.45 0.0 0 0 138.26 65.62"
/>
<path stroke="#dcd9dc" vector-effect="non-scaling-stroke" d="
  M 144.55 66.16
  L 144.06 66.22
  A 0.53 0.52 -43.0 0 0 144.02 67.26
  Q 144.85 67.41 144.93 66.53
  A 0.34 0.34 0.0 0 0 144.55 66.16"
/>
<path stroke="#e6d8d5" vector-effect="non-scaling-stroke" d="
  M 137.3053 69.5882
  A 0.94 0.76 69.1 0 0 137.6800 68.4389
  A 0.94 0.76 69.1 0 0 136.6347 67.8318
  A 0.94 0.76 69.1 0 0 136.2600 68.9811
  A 0.94 0.76 69.1 0 0 137.3053 69.5882"
/>
<path stroke="#7c6a5e" vector-effect="non-scaling-stroke" d="
  M 210.49 67.90
  L 209.07 67.00
  Q 208.20 66.46 208.70 67.35
  C 209.60 68.95 212.23 69.38 213.17 67.62
  Q 213.52 66.96 212.83 67.25
  L 211.12 67.95
  A 0.68 0.68 0.0 0 1 210.49 67.90"
/>
<path stroke="#7c6a5e" vector-effect="non-scaling-stroke" d="
  M 218.70 67.97
  L 217.76 67.35
  A 0.39 0.39 0.0 0 0 217.28 67.97
  Q 219.63 70.09 221.72 67.61
  A 0.27 0.27 0.0 0 0 221.40 67.20
  L 219.71 68.04
  A 1.04 1.02 -40.5 0 1 218.70 67.97"
/>
<path stroke="#c9a392" vector-effect="non-scaling-stroke" d="
  M 214.27 71.21
  Q 213.56 71.01 212.99 71.40
  Q 212.36 71.84 213.13 71.93
  Q 215.12 72.17 216.42 71.92
  Q 217.45 71.72 217.44 70.93
  Q 217.44 70.35 216.98 70.69
  C 216.01 71.40 215.46 71.55 214.27 71.21"
/>
<path stroke="#d3938a" vector-effect="non-scaling-stroke" d="
  M 221.82 116.79
  L 221.75 118.05
  A 0.36 0.35 -22.8 0 0 222.37 118.30
  Q 222.95 117.64 222.74 116.71
  A 0.47 0.47 0.0 0 0 221.82 116.79"
/>
<path stroke="#d3938a" vector-effect="non-scaling-stroke" d="
  M 216.55 120.08
  Q 216.49 120.18 216.50 120.29
  Q 216.52 120.43 216.69 120.56
  Q 217.30 121.01 217.73 120.75
  A 0.56 0.56 0.0 0 0 217.84 119.87
  Q 217.07 119.13 216.74 119.74
  A 1.06 0.12 -67.1 0 1 216.55 120.08"
/>
<path stroke="#c9a392" vector-effect="non-scaling-stroke" d="
  M 234.94 161.06
  Q 235.84 162.76 235.87 162.83
  Q 238.24 167.04 236.31 162.69
  L 235.31 160.45
  A 0.30 0.29 -49.7 0 0 234.76 160.50
  Q 234.64 160.91 234.94 161.06"
/>
<path stroke="#e2c2b3" vector-effect="non-scaling-stroke" d="
  M 231.4753 162.2503
  A 0.26 0.26 0.0 0 0 231.1099 162.2100
  L 230.8133 162.4476
  A 0.26 0.26 0.0 0 0 230.7729 162.8130
  L 235.2247 168.3697
  A 0.26 0.26 0.0 0 0 235.5901 168.4100
  L 235.8867 168.1724
  A 0.26 0.26 0.0 0 0 235.9271 167.8070
  L 231.4753 162.2503"
/>
<path stroke="#458475" vector-effect="non-scaling-stroke" d="
  M 56.32 194.75
  C 57.86 192.74 64.66 186.80 67.35 186.04
  Q 67.83 185.90 68.28 186.10
  Q 70.06 186.89 71.99 186.99
  Q 72.34 187.00 72.45 186.77
  Q 72.64 186.37 72.20 186.33
  L 69.31 186.09
  A 0.51 0.51 0.0 0 1 68.95 185.28
  L 69.53 184.51
  A 0.49 0.49 0.0 0 0 68.86 183.81
  L 59.23 190.51
  A 0.63 0.62 63.0 0 1 58.28 190.20
  L 57.27 187.13
  Q 57.10 186.61 56.62 186.89
  Q 56.37 187.03 56.31 187.32
  Q 56.25 187.61 56.50 188.04
  Q 57.34 189.43 57.95 190.98
  A 0.91 0.91 0.0 0 1 57.81 191.88
  Q 56.04 194.04 53.17 195.90
  Q 52.38 196.41 52.09 197.51
  Q 51.86 198.37 52.44 197.69
  C 54.57 195.15 59.06 197.22 62.28 196.59
  A 0.33 0.33 0.0 0 0 62.26 195.93
  L 56.50 195.18
  Q 56.04 195.12 56.32 194.75"
/>
<path stroke="#458475" vector-effect="non-scaling-stroke" d="
  M 36.25 194.45
  Q 35.66 192.06 35.71 189.07
  Q 35.72 188.42 35.20 188.16
  Q 34.62 187.88 34.76 188.51
  L 35.29 191.00
  A 0.53 0.53 0.0 0 1 34.31 191.38
  Q 32.20 187.82 29.18 184.83
  C 26.41 182.09 23.16 181.55 22.39 176.46
  Q 22.31 175.89 22.08 175.63
  Q 21.71 175.20 21.19 175.19
  Q 20.74 175.18 20.89 175.61
  L 22.23 179.29
  A 0.43 0.43 0.0 0 1 21.70 179.85
  Q 19.25 179.11 16.75 178.51
  Q 16.52 178.46 16.33 178.81
  A 0.28 0.28 0.0 0 0 16.53 179.22
  Q 25.11 180.78 30.40 187.65
  A 0.53 0.52 71.0 0 1 29.99 188.50
  L 24.75 188.50
  A 0.73 0.70 75.0 0 0 24.16 189.58
  Q 24.24 189.72 24.58 189.84
  Q 24.79 189.91 25.05 189.89
  Q 28.06 189.59 31.09 189.17
  Q 31.61 189.10 31.98 189.47
  Q 34.58 192.07 35.98 195.51
  A 0.42 0.41 36.3 0 0 36.78 195.39
  Q 36.83 194.79 36.57 194.75
  Q 36.31 194.71 36.25 194.45"
/>
<path stroke="#4e3a35" vector-effect="non-scaling-stroke" d="
  M 268.3931 180.0953
  A 1.69 1.07 107.1 0 0 269.9127 178.7946
  A 1.69 1.07 107.1 0 0 269.3869 176.8647
  A 1.69 1.07 107.1 0 0 267.8673 178.1654
  A 1.69 1.07 107.1 0 0 268.3931 180.0953"
/>
<path stroke="#4e3a35" vector-effect="non-scaling-stroke" d="
  M 259.96 181.67
  L 261.31 179.64
  A 0.43 0.42 22.0 0 0 261.03 178.99
  L 260.00 178.78
  A 0.68 0.68 0.0 0 0 259.20 179.59
  Q 259.78 182.38 257.16 182.69
  Q 256.96 182.72 256.87 182.80
  Q 256.72 182.92 256.72 183.11
  Q 256.72 183.84 257.40 183.57
  L 259.26 182.81
  Q 259.73 182.61 260.17 182.88
  Q 261.75 183.87 263.42 183.68
  Q 263.78 183.64 263.78 183.29
  Q 263.78 182.83 263.33 182.80
  L 260.44 182.63
  Q 259.37 182.57 259.96 181.67"
/>
<path stroke="#c9a392" vector-effect="non-scaling-stroke" d="
  M 295.7977 207.2980
  A 3.75 3.42 -30.3 0 0 290.8345 206.2372
  A 3.75 3.42 -30.3 0 0 289.3223 211.0820
  A 3.75 3.42 -30.3 0 0 294.2855 212.1428
  A 3.75 3.42 -30.3 0 0 295.7977 207.2980"
/>
<path stroke="#97afa3" vector-effect="non-scaling-stroke" d="
  M 199.27 228.84
  A 3.75 3.75 0.0 0 0 195.52 225.09
  A 3.75 3.75 0.0 0 0 191.77 228.84
  A 3.75 3.75 0.0 0 0 195.52 232.59
  A 3.75 3.75 0.0 0 0 199.27 228.84"
/>
</g>
<path fill="#cdb1aa" d="
  M 110.79 30.50
  L 110.81 37.72
  Q 110.81 38.29 110.26 38.38
  L 89.29 41.81
  A 0.56 0.56 0.0 0 1 88.64 41.26
  L 88.60 34.47
  L 88.73 21.55
  Q 88.73 21.02 89.26 21.01
  L 110.26 20.60
  A 0.69 0.68 -90.0 0 1 110.96 21.31
  L 110.79 30.50
  Z"
/>
<path fill="#e3d4c5" d="
  M 156.47 31.26
  Q 155.83 32.03 154.71 32.27
  Q 141.26 35.18 127.75 37.77
  C 125.00 38.29 120.03 38.21 121.29 42.26
  L 121.16 79.82
  A 0.44 0.44 0.0 0 0 121.73 80.24
  L 156.47 69.13
  L 156.48 78.12
  Q 156.48 78.60 156.03 78.77
  L 141.50 84.04
  L 111.05 94.70
  L 110.94 86.82
  A 0.53 0.52 -6.0 0 0 110.31 86.32
  L 89.17 90.69
  Q 88.76 90.78 88.76 91.19
  L 88.69 102.51
  L 81.24 105.20
  Q 80.81 105.36 80.81 104.90
  L 80.66 68.47
  L 80.46 36.35
  A 0.75 0.75 0.0 0 1 81.09 35.61
  L 88.60 34.47
  L 88.64 41.26
  A 0.56 0.56 0.0 0 0 89.29 41.81
  L 110.26 38.38
  Q 110.81 38.29 110.81 37.72
  L 110.79 30.50
  L 155.95 23.11
  Q 156.48 23.02 156.48 23.55
  L 156.47 31.26
  Z
  M 110.70 59.82
  A 0.30 0.30 0.0 0 0 110.95 59.52
  L 110.75 42.82
  A 0.30 0.30 0.0 0 0 110.41 42.53
  L 89.00 46.06
  A 0.30 0.30 0.0 0 0 88.75 46.35
  L 88.75 63.76
  A 0.30 0.30 0.0 0 0 89.11 64.05
  L 110.70 59.82
  Z
  M 110.51 80.67
  A 0.33 0.33 0.0 0 0 110.77 80.34
  L 110.83 64.40
  A 0.33 0.33 0.0 0 0 110.43 64.07
  L 89.01 68.55
  A 0.33 0.33 0.0 0 0 88.75 68.87
  L 88.75 84.95
  A 0.33 0.33 0.0 0 0 89.15 85.27
  L 110.51 80.67
  Z"
/>
<path fill="#3973b0" d="
  M 156.47 31.26
  Q 156.43 31.41 156.49 31.53
  Q 156.55 31.66 156.69 31.64
  L 159.57 31.16
  Q 160.19 31.05 160.21 31.69
  L 160.27 35.51
  Q 159.99 35.21 159.98 34.74
  Q 159.96 34.26 159.47 34.26
  L 158.74 34.26
  Q 149.24 36.37 140.38 38.40
  C 139.64 38.57 139.53 38.43 138.84 38.25
  A 0.98 0.95 33.6 0 0 138.04 38.40
  Q 136.56 39.47 135.04 39.64
  Q 131.81 39.33 128.50 40.38
  A 0.41 0.40 82.0 0 1 127.97 39.98
  L 128.01 38.80
  A 0.41 0.41 0.0 0 0 127.29 38.53
  Q 126.62 39.35 127.26 40.02
  Q 127.77 40.56 127.05 40.75
  L 121.29 42.26
  C 120.03 38.21 125.00 38.29 127.75 37.77
  Q 141.26 35.18 154.71 32.27
  Q 155.83 32.03 156.47 31.26
  Z
  M 124.76 40.13
  Q 124.80 41.09 125.41 40.35
  L 126.23 39.35
  A 0.40 0.40 0.0 0 0 125.84 38.70
  Q 124.70 38.93 124.76 40.13
  Z
  M 123.2183 41.0099
  A 0.69 0.51 114.1 0 0 123.9655 40.5882
  A 0.69 0.51 114.1 0 0 123.7817 39.7501
  A 0.69 0.51 114.1 0 0 123.0345 40.1718
  A 0.69 0.51 114.1 0 0 123.2183 41.0099
  Z"
/>
<path fill="#97c1e9" d="
  M 160.27 35.51
  L 160.26 67.03
  A 1.37 1.37 0.0 0 1 159.26 68.35
  L 156.47 69.13
  L 121.73 80.24
  A 0.44 0.44 0.0 0 1 121.16 79.82
  L 121.29 42.26
  L 127.05 40.75
  Q 127.77 40.56 127.26 40.02
  Q 126.62 39.35 127.29 38.53
  A 0.41 0.41 0.0 0 1 128.01 38.80
  L 127.97 39.98
  A 0.41 0.40 82.0 0 0 128.50 40.38
  Q 131.81 39.33 135.04 39.64
  Q 134.40 39.71 134.04 40.06
  Q 133.69 40.41 133.95 40.82
  L 134.25 41.29
  L 134.26 42.69
  Q 134.11 42.72 133.95 42.74
  Q 133.88 42.75 133.88 42.82
  L 134.00 62.50
  A 1.03 1.03 0.0 0 0 134.42 63.33
  L 135.36 64.04
  Q 136.10 64.59 135.25 64.94
  L 134.30 65.34
  Q 133.88 65.51 133.89 65.98
  L 134.13 73.30
  A 0.41 0.41 0.0 0 0 134.91 73.46
  Q 135.65 71.96 137.43 72.27
  Q 137.93 72.36 138.42 72.22
  L 148.31 69.35
  Q 148.68 69.24 148.84 68.90
  L 149.34 67.88
  A 0.71 0.70 -54.9 0 1 150.47 67.68
  C 151.22 68.41 151.68 68.40 152.65 67.96
  Q 155.31 66.75 158.20 66.16
  Q 158.71 66.05 158.69 65.53
  L 158.39 59.47
  Q 158.03 58.94 158.02 58.03
  Q 158.50 58.07 158.54 57.75
  Q 159.04 52.98 158.74 47.79
  C 158.49 43.47 159.37 38.91 158.74 34.26
  L 159.47 34.26
  Q 159.96 34.26 159.98 34.74
  Q 159.99 35.21 160.27 35.51
  Z
  M 123.25 49.89
  A 0.53 0.53 0.0 0 0 123.91 50.41
  L 130.10 48.78
  A 0.53 0.53 0.0 0 0 130.50 48.27
  L 130.50 42.38
  A 0.53 0.53 0.0 0 0 129.85 41.86
  L 123.66 43.29
  A 0.53 0.53 0.0 0 0 123.25 43.80
  L 123.25 49.89
  Z
  M 123.56 52.17
  A 0.33 0.33 0.0 0 0 123.33 52.48
  L 123.25 59.13
  A 0.33 0.33 0.0 0 0 123.68 59.44
  L 130.27 57.24
  A 0.33 0.33 0.0 0 0 130.50 56.92
  L 130.50 50.42
  A 0.33 0.33 0.0 0 0 130.07 50.11
  L 123.56 52.17
  Z
  M 123.26 67.86
  A 0.35 0.35 0.0 0 0 123.71 68.19
  L 130.25 66.19
  A 0.35 0.35 0.0 0 0 130.50 65.85
  L 130.50 59.01
  A 0.35 0.35 0.0 0 0 130.05 58.68
  L 123.50 60.65
  A 0.35 0.35 0.0 0 0 123.25 60.99
  L 123.26 67.86
  Z
  M 123.23 75.78
  Q 123.15 76.23 123.27 76.68
  Q 123.41 77.20 123.92 77.03
  L 129.81 75.09
  Q 130.50 74.86 130.50 74.14
  L 130.50 68.05
  A 0.50 0.50 0.0 0 0 129.83 67.58
  L 123.72 69.72
  Q 123.24 69.88 123.25 70.39
  L 123.26 75.31
  Q 123.27 75.54 123.23 75.78
  Z"
/>
<path fill="#ffffff" d="
  M 158.74 34.26
  C 159.37 38.91 158.49 43.47 158.74 47.79
  Q 159.04 52.98 158.54 57.75
  Q 158.50 58.07 158.02 58.03
  Q 157.12 57.78 157.06 58.64
  Q 157.04 58.95 157.25 59.18
  Q 157.58 59.55 158.39 59.47
  L 158.69 65.53
  Q 158.71 66.05 158.20 66.16
  Q 155.31 66.75 152.65 67.96
  C 151.68 68.40 151.22 68.41 150.47 67.68
  A 0.71 0.70 -54.9 0 0 149.34 67.88
  L 148.84 68.90
  Q 148.68 69.24 148.31 69.35
  L 138.42 72.22
  Q 137.93 72.36 137.43 72.27
  Q 135.65 71.96 134.91 73.46
  A 0.41 0.41 0.0 0 1 134.13 73.30
  L 133.89 65.98
  Q 133.88 65.51 134.30 65.34
  L 135.25 64.94
  Q 136.10 64.59 135.36 64.04
  L 134.42 63.33
  A 1.03 1.03 0.0 0 1 134.00 62.50
  L 133.88 42.82
  Q 133.88 42.75 133.95 42.74
  Q 134.11 42.72 134.26 42.69
  Q 135.52 43.40 135.96 42.12
  A 0.89 0.89 0.0 0 0 135.28 40.95
  Q 134.78 40.86 134.25 41.29
  L 133.95 40.82
  Q 133.69 40.41 134.04 40.06
  Q 134.40 39.71 135.04 39.64
  Q 136.56 39.47 138.04 38.40
  A 0.98 0.95 33.6 0 1 138.84 38.25
  C 139.53 38.43 139.64 38.57 140.38 38.40
  Q 149.24 36.37 158.74 34.26
  Z
  M 156.5613 37.8818
  A 0.70 0.49 103.1 0 0 157.1972 37.3111
  A 0.70 0.49 103.1 0 0 156.8787 36.5182
  A 0.70 0.49 103.1 0 0 156.2428 37.0889
  A 0.70 0.49 103.1 0 0 156.5613 37.8818
  Z
  M 152.01 38.14
  L 151.34 38.00
  A 0.29 0.28 -87.1 0 0 151.00 38.31
  L 151.06 38.95
  A 0.52 0.52 0.0 0 0 152.02 39.16
  L 152.27 38.74
  A 0.40 0.40 0.0 0 0 152.01 38.14
  Z
  M 138.1607 40.7672
  A 0.89 0.59 105.6 0 0 138.9683 40.0687
  A 0.89 0.59 105.6 0 0 138.6393 39.0528
  A 0.89 0.59 105.6 0 0 137.8317 39.7513
  A 0.89 0.59 105.6 0 0 138.1607 40.7672
  Z
  M 157.63 40.26
  Q 158.15 39.82 157.06 39.81
  A 0.47 0.45 -76.3 0 0 156.63 40.08
  L 156.52 40.32
  A 0.46 0.46 0.0 0 0 157.13 40.94
  Q 157.46 40.79 157.50 40.51
  A 0.41 0.34 77.7 0 1 157.63 40.26
  Z
  M 147.92 41.24
  Q 148.95 41.12 148.74 40.19
  A 0.35 0.34 63.3 0 0 148.18 40.00
  L 147.60 40.51
  A 0.42 0.42 0.0 0 0 147.92 41.24
  Z
  M 140.2139 45.7582
  A 0.87 0.51 93.7 0 0 140.7789 44.9229
  A 0.87 0.51 93.7 0 0 140.3261 44.0218
  A 0.87 0.51 93.7 0 0 139.7611 44.8571
  A 0.87 0.51 93.7 0 0 140.2139 45.7582
  Z
  M 149.42 46.15
  Q 149.13 46.51 149.30 46.89
  A 0.51 0.51 0.0 0 0 150.00 47.15
  Q 150.26 47.02 150.33 46.84
  A 0.61 0.54 78.6 0 0 149.42 46.15
  Z
  M 157.48 47.87
  Q 157.81 48.18 158.11 47.75
  A 0.48 0.48 0.0 0 0 157.71 47.00
  L 156.95 47.00
  Q 156.34 47.00 156.67 47.51
  Q 156.85 47.80 157.16 47.77
  Q 157.34 47.75 157.48 47.87
  Z
  M 137.33 48.00
  A 0.71 0.71 0.0 0 0 136.62 47.29
  A 0.71 0.71 0.0 0 0 135.91 48.00
  A 0.71 0.71 0.0 0 0 136.62 48.71
  A 0.71 0.71 0.0 0 0 137.33 48.00
  Z
  M 139.16 49.21
  Q 138.87 49.81 139.54 49.76
  L 140.09 49.72
  A 0.43 0.43 0.0 0 0 140.36 48.99
  L 140.01 48.64
  Q 139.62 48.24 139.38 48.74
  L 139.16 49.21
  Z
  M 144.55 52.02
  Q 145.37 51.24 144.55 50.71
  Q 143.73 50.18 143.97 51.12
  L 144.18 51.92
  Q 144.28 52.29 144.55 52.02
  Z
  M 157.59 50.57
  Q 156.51 51.21 157.40 52.03
  A 0.38 0.37 17.7 0 0 158.03 51.71
  L 157.90 50.72
  Q 157.86 50.41 157.59 50.57
  Z
  M 138.16 53.63
  Q 138.70 54.50 139.51 54.03
  A 0.79 0.61 -65.2 0 0 139.20 52.65
  L 138.33 53.05
  A 0.41 0.40 61.7 0 0 138.16 53.63
  Z
  M 149.99 54.25
  A 0.74 0.52 0.0 0 0 149.25 53.73
  A 0.74 0.52 0.0 0 0 148.51 54.25
  A 0.74 0.52 0.0 0 0 149.25 54.77
  A 0.74 0.52 0.0 0 0 149.99 54.25
  Z
  M 137.01 55.13
  Q 136.47 54.74 135.72 54.73
  A 0.65 0.59 43.8 0 0 135.81 55.97
  L 136.70 56.01
  A 0.49 0.49 0.0 0 0 137.01 55.13
  Z
  M 144.17 55.19
  Q 143.94 54.93 143.70 55.18
  L 143.31 55.56
  A 0.68 0.61 -83.6 0 0 144.06 56.61
  Q 144.89 55.95 144.17 55.19
  Z
  M 156.08 55.75
  A 0.71 0.71 0.0 0 0 155.37 55.04
  A 0.71 0.71 0.0 0 0 154.66 55.75
  A 0.71 0.71 0.0 0 0 155.37 56.46
  A 0.71 0.71 0.0 0 0 156.08 55.75
  Z
  M 149.1639 58.2443
  A 0.84 0.63 104.2 0 0 149.9808 57.5845
  A 0.84 0.63 104.2 0 0 149.5761 56.6157
  A 0.84 0.63 104.2 0 0 148.7592 57.2755
  A 0.84 0.63 104.2 0 0 149.1639 58.2443
  Z
  M 140.0601 58.4241
  A 0.71 0.66 135.9 0 0 141.0293 58.4040
  A 0.71 0.66 135.9 0 0 141.0799 57.4359
  A 0.71 0.66 135.9 0 0 140.1107 57.4560
  A 0.71 0.66 135.9 0 0 140.0601 58.4241
  Z
  M 146.4943 60.3845
  A 0.78 0.50 -11.5 0 0 145.6303 60.0500
  A 0.78 0.50 -11.5 0 0 144.9657 60.6955
  A 0.78 0.50 -11.5 0 0 145.8297 61.0300
  A 0.78 0.50 -11.5 0 0 146.4943 60.3845
  Z
  M 151.69 61.06
  Q 151.93 61.38 152.36 61.06
  A 0.52 0.51 47.2 0 0 152.39 60.26
  Q 151.95 59.86 151.26 59.99
  A 0.50 0.50 0.0 0 0 151.27 60.98
  Q 151.37 60.99 151.69 61.06
  Z
  M 136.78 61.22
  A 0.37 0.37 0.0 0 0 136.25 61.56
  L 136.25 62.19
  A 0.51 0.51 0.0 0 0 137.26 62.26
  Q 137.38 61.51 136.78 61.22
  Z
  M 156.7086 63.6852
  A 0.86 0.69 36.8 0 0 156.4333 62.6175
  A 0.86 0.69 36.8 0 0 155.3314 62.6548
  A 0.86 0.69 36.8 0 0 155.6067 63.7225
  A 0.86 0.69 36.8 0 0 156.7086 63.6852
  Z
  M 142.86 64.47
  Q 143.05 64.38 143.17 64.19
  Q 143.28 64.01 143.23 63.80
  Q 143.11 63.33 142.62 63.04
  A 0.74 0.73 29.3 0 0 141.61 63.32
  Q 141.13 64.19 141.89 64.70
  Q 141.99 64.77 142.10 64.77
  Q 142.22 64.77 142.32 64.74
  Q 142.34 64.73 142.86 64.47
  Z
  M 149.0772 65.2646
  A 0.85 0.74 106.6 0 0 150.0292 64.6614
  A 0.85 0.74 106.6 0 0 149.5628 63.6354
  A 0.85 0.74 106.6 0 0 148.6108 64.2386
  A 0.85 0.74 106.6 0 0 149.0772 65.2646
  Z
  M 138.26 65.62
  Q 139.26 66.32 139.43 65.04
  A 0.53 0.53 0.0 0 0 138.53 64.60
  L 138.20 64.93
  A 0.45 0.45 0.0 0 0 138.26 65.62
  Z
  M 144.55 66.16
  L 144.06 66.22
  A 0.53 0.52 -43.0 0 0 144.02 67.26
  Q 144.85 67.41 144.93 66.53
  A 0.34 0.34 0.0 0 0 144.55 66.16
  Z
  M 137.3053 69.5882
  A 0.94 0.76 69.1 0 0 137.6800 68.4389
  A 0.94 0.76 69.1 0 0 136.6347 67.8318
  A 0.94 0.76 69.1 0 0 136.2600 68.9811
  A 0.94 0.76 69.1 0 0 137.3053 69.5882
  Z"
/>
<ellipse fill="#b9b3b8" cx="0.00" cy="0.00" transform="translate(156.72,37.20) rotate(103.1)" rx="0.70" ry="0.49"/>
<path fill="#9b7368" d="
  M 152.27 38.74
  L 152.02 39.16
  A 0.52 0.52 0.0 0 1 151.06 38.95
  L 151.00 38.31
  A 0.29 0.28 -87.1 0 1 151.34 38.00
  L 152.01 38.14
  A 0.40 0.40 0.0 0 1 152.27 38.74
  Z"
/>
<path fill="#97c1e9" d="
  M 124.76 40.13
  Q 124.70 38.93 125.84 38.70
  A 0.40 0.40 0.0 0 1 126.23 39.35
  L 125.41 40.35
  Q 124.80 41.09 124.76 40.13
  Z"
/>
<ellipse fill="#9b7368" cx="0.00" cy="0.00" transform="translate(138.40,39.91) rotate(105.6)" rx="0.89" ry="0.59"/>
<ellipse fill="#97c1e9" cx="0.00" cy="0.00" transform="translate(123.50,40.38) rotate(114.1)" rx="0.69" ry="0.51"/>
<path fill="#b9b3b8" d="
  M 157.50 40.51
  Q 157.46 40.79 157.13 40.94
  A 0.46 0.46 0.0 0 1 156.52 40.32
  L 156.63 40.08
  A 0.47 0.45 -76.3 0 1 157.06 39.81
  Q 158.15 39.82 157.63 40.26
  A 0.41 0.34 77.7 0 0 157.50 40.51
  Z"
/>
<path fill="#9b7368" d="
  M 147.92 41.24
  A 0.42 0.42 0.0 0 1 147.60 40.51
  L 148.18 40.00
  A 0.35 0.34 63.3 0 1 148.74 40.19
  Q 148.95 41.12 147.92 41.24
  Z"
/>
<path fill="#5ba092" d="
  M 230.21 63.25
  L 221.82 60.20
  Q 221.39 59.16 217.80 59.90
  Q 217.07 59.04 215.05 58.63
  Q 218.41 57.07 219.94 54.81
  A 0.92 0.91 12.3 0 0 219.03 53.40
  Q 215.74 53.95 214.05 56.87
  Q 213.73 57.43 213.48 56.84
  L 211.95 53.28
  Q 213.28 53.34 214.44 52.85
  Q 215.02 52.60 214.61 52.12
  C 206.31 42.20 225.05 34.40 229.17 45.19
  C 230.61 48.97 228.77 52.34 225.24 53.87
  A 0.40 0.40 0.0 0 0 225.18 54.57
  Q 229.78 57.49 230.21 63.25
  Z"
/>
<path fill="#b9b3b8" d="
  M 134.26 42.69
  L 134.25 41.29
  Q 134.78 40.86 135.28 40.95
  A 0.89 0.89 0.0 0 1 135.96 42.12
  Q 135.52 43.40 134.26 42.69
  Z"
/>
<path fill="#ffffff" d="
  M 123.25 49.89
  L 123.25 43.80
  A 0.53 0.53 0.0 0 1 123.66 43.29
  L 129.85 41.86
  A 0.53 0.53 0.0 0 1 130.50 42.38
  L 130.50 48.27
  A 0.53 0.53 0.0 0 1 130.10 48.78
  L 123.91 50.41
  A 0.53 0.53 0.0 0 1 123.25 49.89
  Z"
/>
<path fill="#cdb1aa" d="
  M 110.70 59.82
  L 89.11 64.05
  A 0.30 0.30 0.0 0 1 88.75 63.76
  L 88.75 46.35
  A 0.30 0.30 0.0 0 1 89.00 46.06
  L 110.41 42.53
  A 0.30 0.30 0.0 0 1 110.75 42.82
  L 110.95 59.52
  A 0.30 0.30 0.0 0 1 110.70 59.82
  Z"
/>
<ellipse fill="#b9b3b8" cx="0.00" cy="0.00" transform="translate(140.27,44.89) rotate(93.7)" rx="0.87" ry="0.51"/>
<path fill="#9b7368" d="
  M 149.42 46.15
  A 0.61 0.54 78.6 0 1 150.33 46.84
  Q 150.26 47.02 150.00 47.15
  A 0.51 0.51 0.0 0 1 149.30 46.89
  Q 149.13 46.51 149.42 46.15
  Z"
/>
<path fill="#b9b3b8" d="
  M 157.16 47.77
  Q 156.85 47.80 156.67 47.51
  Q 156.34 47.00 156.95 47.00
  L 157.71 47.00
  A 0.48 0.48 0.0 0 1 158.11 47.75
  Q 157.81 48.18 157.48 47.87
  Q 157.34 47.75 157.16 47.77
  Z"
/>
<circle fill="#9b7368" cx="136.62" cy="48.00" r="0.71"/>
<path fill="#9b7368" d="
  M 139.16 49.21
  L 139.38 48.74
  Q 139.62 48.24 140.01 48.64
  L 140.36 48.99
  A 0.43 0.43 0.0 0 1 140.09 49.72
  L 139.54 49.76
  Q 138.87 49.81 139.16 49.21
  Z"
/>
<path fill="#ffffff" d="
  M 123.56 52.17
  L 130.07 50.11
  A 0.33 0.33 0.0 0 1 130.50 50.42
  L 130.50 56.92
  A 0.33 0.33 0.0 0 1 130.27 57.24
  L 123.68 59.44
  A 0.33 0.33 0.0 0 1 123.25 59.13
  L 123.33 52.48
  A 0.33 0.33 0.0 0 1 123.56 52.17
  Z"
/>
<path fill="#9b7368" d="
  M 144.55 52.02
  Q 144.28 52.29 144.18 51.92
  L 143.97 51.12
  Q 143.73 50.18 144.55 50.71
  Q 145.37 51.24 144.55 52.02
  Z"
/>
<path fill="#b9b3b8" d="
  M 157.59 50.57
  Q 157.86 50.41 157.90 50.72
  L 158.03 51.71
  A 0.38 0.37 17.7 0 1 157.40 52.03
  Q 156.51 51.21 157.59 50.57
  Z"
/>
<path fill="#2f6858" d="
  M 211.95 53.28
  L 213.48 56.84
  Q 213.73 57.43 214.05 56.87
  Q 215.74 53.95 219.03 53.40
  A 0.92 0.91 12.3 0 1 219.94 54.81
  Q 218.41 57.07 215.05 58.63
  Q 214.25 58.27 213.00 58.71
  Q 210.24 57.58 208.04 55.29
  L 207.06 52.97
  A 0.92 0.92 0.0 0 1 208.26 51.76
  L 211.95 53.28
  Z"
/>
<path fill="#9b7368" d="
  M 138.16 53.63
  A 0.41 0.40 61.7 0 1 138.33 53.05
  L 139.20 52.65
  A 0.79 0.61 -65.2 0 1 139.51 54.03
  Q 138.70 54.50 138.16 53.63
  Z"
/>
<ellipse fill="#b9b3b8" cx="149.25" cy="54.25" rx="0.74" ry="0.52"/>
<path fill="#b9b3b8" d="
  M 137.01 55.13
  A 0.49 0.49 0.0 0 1 136.70 56.01
  L 135.81 55.97
  A 0.65 0.59 43.8 0 1 135.72 54.73
  Q 136.47 54.74 137.01 55.13
  Z"
/>
<path fill="#b9b3b8" d="
  M 144.17 55.19
  Q 144.89 55.95 144.06 56.61
  A 0.68 0.61 -83.6 0 1 143.31 55.56
  L 143.70 55.18
  Q 143.94 54.93 144.17 55.19
  Z"
/>
<circle fill="#b9b3b8" cx="155.37" cy="55.75" r="0.71"/>
<path fill="#5ba092" d="
  M 208.04 55.29
  Q 210.24 57.58 213.00 58.71
  L 205.19 64.54
  Q 204.93 64.74 204.46 64.75
  Q 203.73 58.97 208.04 55.29
  Z"
/>
<ellipse fill="#cdb1aa" cx="0.00" cy="0.00" transform="translate(149.37,57.43) rotate(104.2)" rx="0.84" ry="0.63"/>
<ellipse fill="#b9b3b8" cx="0.00" cy="0.00" transform="translate(140.57,57.93) rotate(135.9)" rx="0.71" ry="0.66"/>
<path fill="#b9b3b8" d="
  M 158.02 58.03
  Q 158.03 58.94 158.39 59.47
  Q 157.58 59.55 157.25 59.18
  Q 157.04 58.95 157.06 58.64
  Q 157.12 57.78 158.02 58.03
  Z"
/>
<path fill="#010101" d="
  M 215.05 58.63
  Q 217.07 59.04 217.80 59.90
  Q 212.57 64.67 205.19 64.54
  L 213.00 58.71
  Q 214.25 58.27 215.05 58.63
  Z"
/>
<path fill="#ffffff" d="
  M 123.26 67.86
  L 123.25 60.99
  A 0.35 0.35 0.0 0 1 123.50 60.65
  L 130.05 58.68
  A 0.35 0.35 0.0 0 1 130.50 59.01
  L 130.50 65.85
  A 0.35 0.35 0.0 0 1 130.25 66.19
  L 123.71 68.19
  A 0.35 0.35 0.0 0 1 123.26 67.86
  Z"
/>
<path fill="#f7d3bb" d="
  M 221.82 60.20
  Q 224.87 64.10 230.19 64.78
  C 236.28 66.10 233.25 71.65 229.19 69.64
  A 0.57 0.56 -56.8 0 0 228.50 69.79
  Q 225.26 73.74 220.22 75.02
  Q 219.75 75.14 219.78 75.63
  L 220.10 81.32
  Q 215.86 84.16 211.59 82.12
  Q 211.06 81.87 211.00 81.29
  L 214.10 81.21
  Q 214.61 81.20 214.63 80.69
  L 214.84 75.58
  A 0.62 0.61 -81.9 0 0 214.38 74.96
  Q 209.55 73.81 206.33 70.06
  Q 205.96 69.63 205.41 69.76
  L 204.53 69.98
  Q 204.03 70.11 203.52 70.05
  Q 201.87 69.86 201.33 68.36
  Q 200.69 66.59 202.38 65.77
  L 204.46 64.75
  Q 204.93 64.74 205.19 64.54
  Q 212.57 64.67 217.80 59.90
  Q 221.39 59.16 221.82 60.20
  Z
  M 210.49 67.90
  L 209.07 67.00
  Q 208.20 66.46 208.70 67.35
  C 209.60 68.95 212.23 69.38 213.17 67.62
  Q 213.52 66.96 212.83 67.25
  L 211.12 67.95
  A 0.68 0.68 0.0 0 1 210.49 67.90
  Z
  M 218.70 67.97
  L 217.76 67.35
  A 0.39 0.39 0.0 0 0 217.28 67.97
  Q 219.63 70.09 221.72 67.61
  A 0.27 0.27 0.0 0 0 221.40 67.20
  L 219.71 68.04
  A 1.04 1.02 -40.5 0 1 218.70 67.97
  Z
  M 214.27 71.21
  Q 213.56 71.01 212.99 71.40
  Q 212.36 71.84 213.13 71.93
  Q 215.12 72.17 216.42 71.92
  Q 217.45 71.72 217.44 70.93
  Q 217.44 70.35 216.98 70.69
  C 216.01 71.40 215.46 71.55 214.27 71.21
  Z"
/>
<ellipse fill="#9b7368" cx="0.00" cy="0.00" transform="translate(145.73,60.54) rotate(-11.5)" rx="0.78" ry="0.50"/>
<path fill="#9b7368" d="
  M 151.69 61.06
  Q 151.37 60.99 151.27 60.98
  A 0.50 0.50 0.0 0 1 151.26 59.99
  Q 151.95 59.86 152.39 60.26
  A 0.52 0.51 47.2 0 1 152.36 61.06
  Q 151.93 61.38 151.69 61.06
  Z"
/>
<path fill="#010101" d="
  M 221.82 60.20
  L 230.21 63.25
  L 230.19 64.78
  Q 224.87 64.10 221.82 60.20
  Z"
/>
<path fill="#b9b3b8" d="
  M 136.78 61.22
  Q 137.38 61.51 137.26 62.26
  A 0.51 0.51 0.0 0 1 136.25 62.19
  L 136.25 61.56
  A 0.37 0.37 0.0 0 1 136.78 61.22
  Z"
/>
<ellipse fill="#b9b3b8" cx="0.00" cy="0.00" transform="translate(156.02,63.17) rotate(36.8)" rx="0.86" ry="0.69"/>
<path fill="#cdb1aa" d="
  M 142.32 64.74
  Q 142.22 64.77 142.10 64.77
  Q 141.99 64.77 141.89 64.70
  Q 141.13 64.19 141.61 63.32
  A 0.74 0.73 29.3 0 1 142.62 63.04
  Q 143.11 63.33 143.23 63.80
  Q 143.28 64.01 143.17 64.19
  Q 143.05 64.38 142.86 64.47
  Q 142.34 64.73 142.32 64.74
  Z"
/>
<ellipse fill="#b9b3b8" cx="0.00" cy="0.00" transform="translate(149.32,64.45) rotate(106.6)" rx="0.85" ry="0.74"/>
<path fill="#cdb1aa" d="
  M 110.51 80.67
  L 89.15 85.27
  A 0.33 0.33 0.0 0 1 88.75 84.95
  L 88.75 68.87
  A 0.33 0.33 0.0 0 1 89.01 68.55
  L 110.43 64.07
  A 0.33 0.33 0.0 0 1 110.83 64.40
  L 110.77 80.34
  A 0.33 0.33 0.0 0 1 110.51 80.67
  Z"
/>
<path fill="#b9b3b8" d="
  M 138.26 65.62
  A 0.45 0.45 0.0 0 1 138.20 64.93
  L 138.53 64.60
  A 0.53 0.53 0.0 0 1 139.43 65.04
  Q 139.26 66.32 138.26 65.62
  Z"
/>
<path fill="#b9b3b8" d="
  M 144.55 66.16
  A 0.34 0.34 0.0 0 1 144.93 66.53
  Q 144.85 67.41 144.02 67.26
  A 0.53 0.52 -43.0 0 1 144.06 66.22
  L 144.55 66.16
  Z"
/>
<path fill="#010101" d="
  M 211.12 67.95
  L 212.83 67.25
  Q 213.52 66.96 213.17 67.62
  C 212.23 69.38 209.60 68.95 208.70 67.35
  Q 208.20 66.46 209.07 67.00
  L 210.49 67.90
  A 0.68 0.68 0.0 0 0 211.12 67.95
  Z"
/>
<path fill="#010101" d="
  M 219.71 68.04
  L 221.40 67.20
  A 0.27 0.27 0.0 0 1 221.72 67.61
  Q 219.63 70.09 217.28 67.97
  A 0.39 0.39 0.0 0 1 217.76 67.35
  L 218.70 67.97
  A 1.04 1.02 -40.5 0 0 219.71 68.04
  Z"
/>
<path fill="#ffffff" d="
  M 123.26 75.31
  L 123.25 70.39
  Q 123.24 69.88 123.72 69.72
  L 129.83 67.58
  A 0.50 0.50 0.0 0 1 130.50 68.05
  L 130.50 74.14
  Q 130.50 74.86 129.81 75.09
  L 123.92 77.03
  Q 123.41 77.20 123.27 76.68
  Q 123.15 76.23 123.23 75.78
  Q 123.27 75.54 123.26 75.31
  Z"
/>
<ellipse fill="#cdb1aa" cx="0.00" cy="0.00" transform="translate(136.97,68.71) rotate(69.1)" rx="0.94" ry="0.76"/>
<path fill="#010101" d="
  M 80.66 68.47
  L 80.81 104.90
  Q 80.81 105.36 81.24 105.20
  L 88.69 102.51
  L 88.75 109.90
  Q 88.76 110.51 89.33 110.30
  L 110.70 102.34
  A 0.74 0.72 79.3 0 0 111.17 101.64
  L 111.05 94.70
  L 141.50 84.04
  Q 141.03 93.63 141.31 103.26
  Q 141.45 107.76 136.99 108.12
  Q 121.39 109.35 106.09 110.88
  L 91.98 112.04
  Q 91.80 112.06 91.75 112.24
  Q 91.72 112.37 91.71 112.50
  Q 90.53 112.07 89.24 112.19
  Q 75.30 113.49 61.20 114.52
  L 61.27 69.56
  L 80.66 68.47
  Z"
/>
<path fill="#b9b3b8" d="
  M 61.27 69.56
  L 61.20 114.52
  C 53.94 115.62 54.37 111.44 54.32 105.83
  Q 54.18 89.77 54.26 73.72
  Q 54.29 68.20 61.27 69.56
  Z"
/>
<path fill="#9b7368" d="
  M 214.27 71.21
  C 215.46 71.55 216.01 71.40 216.98 70.69
  Q 217.44 70.35 217.44 70.93
  Q 217.45 71.72 216.42 71.92
  Q 215.12 72.17 213.13 71.93
  Q 212.36 71.84 212.99 71.40
  Q 213.56 71.01 214.27 71.21
  Z"
/>
<path fill="#2f6858" d="
  M 209.76 81.56
  Q 208.40 84.53 209.24 89.69
  L 207.37 89.20
  L 206.50 81.71
  Q 206.74 80.75 207.34 79.98
  Q 207.69 79.54 208.20 79.77
  Q 209.05 80.16 209.76 81.56
  Z"
/>
<path fill="#ed725c" d="
  M 211.00 81.29
  Q 211.06 81.87 211.59 82.12
  Q 215.86 84.16 220.10 81.32
  C 231.94 82.41 240.70 87.67 242.86 100.27
  Q 236.61 105.44 228.54 105.53
  Q 228.00 105.54 228.05 106.08
  L 229.59 122.83
  Q 215.67 126.34 201.54 125.15
  Q 203.83 121.74 206.16 118.19
  C 208.31 114.92 214.47 118.62 216.33 115.34
  A 0.71 0.71 0.0 0 0 215.59 114.29
  L 212.38 114.85
  A 0.15 0.14 31.3 0 1 212.31 114.57
  L 218.05 112.81
  A 1.18 1.18 0.0 0 0 217.71 110.50
  L 212.57 110.49
  A 0.23 0.23 0.0 0 1 212.53 110.03
  C 215.07 109.57 220.17 110.86 219.47 106.41
  L 219.47 104.51
  Q 221.17 101.67 218.70 99.47
  Q 218.31 99.12 217.81 99.28
  L 217.22 99.46
  L 217.91 92.21
  Q 218.83 91.33 218.42 90.19
  Q 218.23 89.66 217.66 89.66
  L 209.24 89.69
  Q 208.40 84.53 209.76 81.56
  L 211.00 81.29
  Z
  M 221.82 116.79
  L 221.75 118.05
  A 0.36 0.35 -22.8 0 0 222.37 118.30
  Q 222.95 117.64 222.74 116.71
  A 0.47 0.47 0.0 0 0 221.82 116.79
  Z
  M 216.55 120.08
  Q 216.49 120.18 216.50 120.29
  Q 216.52 120.43 216.69 120.56
  Q 217.30 121.01 217.73 120.75
  A 0.56 0.56 0.0 0 0 217.84 119.87
  Q 217.07 119.13 216.74 119.74
  A 1.06 0.12 -67.1 0 1 216.55 120.08
  Z"
/>
<path fill="#ed725c" d="
  M 206.50 81.71
  L 207.37 89.20
  Q 204.80 89.89 201.79 89.32
  Q 201.30 89.23 200.92 89.55
  Q 199.30 90.92 201.07 92.15
  L 201.76 98.01
  Q 201.02 97.58 200.42 97.79
  Q 199.84 97.99 199.83 98.61
  L 199.71 106.43
  A 3.20 3.17 70.0 0 1 198.63 108.78
  L 187.85 118.34
  A 0.11 0.11 0.0 0 1 187.69 118.19
  C 190.70 114.43 195.49 110.88 198.35 108.60
  Q 199.83 107.42 199.06 105.12
  Q 198.93 104.72 198.51 104.65
  Q 191.45 103.53 184.82 100.64
  Q 190.50 85.41 206.50 81.71
  Z"
/>
<path fill="#cdb1aa" d="
  M 111.05 94.70
  L 111.17 101.64
  A 0.74 0.72 79.3 0 1 110.70 102.34
  L 89.33 110.30
  Q 88.76 110.51 88.75 109.90
  L 88.69 102.51
  L 88.76 91.19
  Q 88.76 90.78 89.17 90.69
  L 110.31 86.32
  A 0.53 0.52 -6.0 0 1 110.94 86.82
  L 111.05 94.70
  Z"
/>
<path fill="#3973b0" d="
  M 207.37 89.20
  L 209.24 89.69
  L 217.66 89.66
  Q 218.23 89.66 218.42 90.19
  Q 218.83 91.33 217.91 92.21
  L 201.07 92.15
  Q 199.30 90.92 200.92 89.55
  Q 201.30 89.23 201.79 89.32
  Q 204.80 89.89 207.37 89.20
  Z"
/>
<path fill="#97c1e9" d="
  M 217.91 92.21
  L 217.22 99.46
  Q 216.90 99.84 216.94 100.74
  C 216.04 102.48 210.85 103.23 208.97 103.67
  L 203.22 102.75
  Q 202.68 102.67 202.42 102.19
  Q 201.43 100.35 201.76 98.01
  L 201.07 92.15
  L 217.91 92.21
  Z"
/>
<path fill="#f7d3bb" d="
  M 201.76 98.01
  Q 201.43 100.35 202.42 102.19
  Q 202.68 102.67 203.22 102.75
  L 208.97 103.67
  Q 213.06 103.97 216.59 102.12
  Q 217.02 101.90 217.10 101.58
  Q 217.20 101.17 216.94 100.74
  Q 216.90 99.84 217.22 99.46
  L 217.81 99.28
  Q 218.31 99.12 218.70 99.47
  Q 221.17 101.67 219.47 104.51
  L 213.47 106.01
  A 0.34 0.33 -53.0 0 0 213.56 106.67
  L 219.47 106.41
  C 220.17 110.86 215.07 109.57 212.53 110.03
  A 0.23 0.23 0.0 0 0 212.57 110.49
  L 217.71 110.50
  A 1.18 1.18 0.0 0 1 218.05 112.81
  L 212.31 114.57
  A 0.15 0.14 31.3 0 0 212.38 114.85
  L 215.59 114.29
  A 0.71 0.71 0.0 0 1 216.33 115.34
  C 214.47 118.62 208.31 114.92 206.16 118.19
  Q 203.83 121.74 201.54 125.15
  C 197.38 130.73 190.54 139.10 183.11 139.44
  C 177.47 139.71 173.89 136.85 175.76 130.74
  Q 177.39 125.42 181.96 108.25
  L 184.82 100.64
  Q 191.45 103.53 198.51 104.65
  Q 198.93 104.72 199.06 105.12
  Q 199.83 107.42 198.35 108.60
  C 195.49 110.88 190.70 114.43 187.69 118.19
  A 0.11 0.11 0.0 0 0 187.85 118.34
  L 198.63 108.78
  A 3.20 3.17 70.0 0 0 199.71 106.43
  L 199.83 98.61
  Q 199.84 97.99 200.42 97.79
  Q 201.02 97.58 201.76 98.01
  Z"
/>
<path fill="#3973b0" d="
  M 181.96 108.25
  Q 177.39 125.42 175.76 130.74
  C 173.89 136.85 177.47 139.71 183.11 139.44
  C 190.54 139.10 197.38 130.73 201.54 125.15
  Q 215.67 126.34 229.59 122.83
  L 230.81 129.68
  L 230.70 130.18
  L 222.87 156.55
  L 188.22 155.98
  L 173.26 151.73
  Q 172.50 151.52 172.74 152.27
  Q 173.30 154.03 174.93 155.71
  L 179.75 164.65
  L 190.14 183.46
  L 192.46 188.25
  Q 192.70 188.75 192.50 189.27
  L 190.50 194.54
  L 187.75 197.46
  Q 182.84 201.54 176.34 202.59
  L 174.03 202.27
  Q 173.54 202.21 173.36 201.74
  Q 170.94 195.52 168.83 189.18
  Q 168.61 188.53 168.00 188.21
  Q 167.98 187.89 168.01 187.56
  Q 168.04 187.21 167.93 186.93
  Q 160.71 167.51 153.92 147.95
  C 151.80 141.86 151.26 134.51 156.99 130.43
  Q 157.42 130.13 157.33 129.61
  L 156.06 122.68
  L 155.07 116.14
  L 154.86 112.00
  Q 154.51 108.40 155.00 105.74
  C 156.28 98.77 165.06 98.66 170.10 101.10
  Q 176.38 104.13 181.96 108.25
  Z"
/>
<path fill="#f7d3bb" d="
  M 242.86 100.27
  C 247.56 119.82 248.17 137.69 238.20 155.77
  Q 238.02 156.10 238.18 156.44
  L 243.45 167.05
  Q 243.95 168.05 242.84 168.11
  L 239.83 168.27
  Q 239.41 168.29 239.07 168.54
  Q 238.00 169.32 236.56 168.91
  Q 236.13 168.79 235.75 169.03
  Q 233.89 170.23 231.86 168.66
  Q 230.10 165.34 227.20 162.65
  Q 226.65 162.15 226.97 162.82
  C 228.16 165.40 230.06 166.81 231.86 168.66
  C 230.13 173.18 225.26 166.51 224.21 164.50
  Q 222.80 160.93 222.87 156.55
  L 230.70 130.18
  L 233.82 129.33
  Q 234.79 129.06 233.87 128.66
  Q 232.57 128.09 230.81 129.68
  L 229.59 122.83
  L 228.05 106.08
  Q 228.00 105.54 228.54 105.53
  Q 236.61 105.44 242.86 100.27
  Z
  M 234.94 161.06
  Q 235.84 162.76 235.87 162.83
  Q 238.24 167.04 236.31 162.69
  L 235.31 160.45
  A 0.30 0.29 -49.7 0 0 234.76 160.50
  Q 234.64 160.91 234.94 161.06
  Z
  M 231.4753 162.2503
  A 0.26 0.26 0.0 0 0 231.1099 162.2100
  L 230.8133 162.4476
  A 0.26 0.26 0.0 0 0 230.7729 162.8130
  L 235.2247 168.3697
  A 0.26 0.26 0.0 0 0 235.5901 168.4100
  L 235.8867 168.1724
  A 0.26 0.26 0.0 0 0 235.9271 167.8070
  L 231.4753 162.2503
  Z"
/>
<path fill="#b9b3b8" d="
  M 216.94 100.74
  Q 217.20 101.17 217.10 101.58
  Q 217.02 101.90 216.59 102.12
  Q 213.06 103.97 208.97 103.67
  C 210.85 103.23 216.04 102.48 216.94 100.74
  Z"
/>
<path fill="#cdb1aa" d="
  M 219.47 104.51
  L 219.47 106.41
  L 213.56 106.67
  A 0.34 0.33 -53.0 0 1 213.47 106.01
  L 219.47 104.51
  Z"
/>
<path fill="#b9b3b8" d="
  M 106.09 110.88
  L 104.29 116.75
  Q 103.67 117.91 103.55 119.29
  Q 103.50 119.95 104.13 119.73
  Q 107.10 118.70 109.11 120.70
  A 1.31 1.31 0.0 0 1 108.19 122.94
  L 89.71 123.03
  Q 89.09 123.03 89.15 122.41
  L 89.50 119.05
  Q 91.60 115.95 91.71 112.50
  Q 91.72 112.37 91.75 112.24
  Q 91.80 112.06 91.98 112.04
  L 106.09 110.88
  Z"
/>
<path fill="#2f6858" d="
  M 154.86 112.00
  L 155.07 116.14
  Q 130.22 120.64 105.57 125.38
  Q 99.66 126.51 93.82 126.61
  Q 66.67 127.04 39.49 126.53
  L 89.50 119.05
  L 89.15 122.41
  Q 89.09 123.03 89.71 123.03
  L 108.19 122.94
  A 1.31 1.31 0.0 0 0 109.11 120.70
  Q 107.10 118.70 104.13 119.73
  Q 103.50 119.95 103.55 119.29
  Q 103.67 117.91 104.29 116.75
  Q 117.53 114.80 130.77 112.87
  C 138.85 111.69 146.70 112.00 154.86 112.00
  Z"
/>
<path fill="#5ba092" d="
  M 155.07 116.14
  L 156.06 122.68
  L 141.02 125.60
  Q 140.52 125.70 140.43 126.21
  L 130.13 188.27
  C 129.71 190.62 129.49 198.13 125.69 197.27
  A 2.56 2.56 0.0 0 1 123.75 194.29
  L 124.95 188.15
  L 135.06 127.14
  A 0.38 0.37 -0.6 0 0 134.62 126.71
  Q 118.08 129.80 101.63 132.90
  C 97.20 133.74 92.62 133.37 87.94 133.72
  Q 87.40 133.76 87.49 134.30
  L 97.31 188.02
  L 103.74 222.72
  Q 103.26 224.24 103.58 226.03
  Q 103.18 227.31 101.35 227.30
  Q 99.07 225.85 98.63 222.70
  L 92.00 187.93
  L 82.39 134.31
  Q 82.29 133.78 81.75 133.78
  L 61.78 133.67
  Q 61.19 133.66 61.07 134.24
  L 47.79 200.03
  Q 47.67 200.58 48.24 200.50
  C 49.25 200.34 49.49 199.50 49.43 198.52
  Q 48.66 186.27 59.24 180.46
  Q 59.72 180.19 59.92 180.71
  L 61.12 183.71
  A 0.45 0.45 0.0 0 0 61.98 183.63
  L 62.94 178.40
  Q 63.07 177.73 63.69 178.02
  L 64.02 178.17
  Q 64.42 178.36 64.45 178.80
  L 64.58 180.48
  A 0.47 0.47 0.0 0 0 65.50 180.55
  L 66.16 177.66
  A 0.90 0.88 -2.4 0 1 66.78 177.00
  Q 71.61 175.63 76.46 176.86
  A 0.96 0.96 0.0 0 1 77.16 177.56
  C 79.49 187.45 71.49 197.37 63.00 200.83
  Q 56.81 203.36 49.86 200.50
  Q 49.38 200.30 48.95 200.60
  Q 46.68 202.15 46.69 205.65
  Q 45.85 204.19 44.59 205.15
  L 43.78 204.20
  L 41.79 203.30
  L 55.76 134.36
  Q 55.90 133.71 55.23 133.71
  L 37.78 133.75
  A 0.53 0.53 0.0 0 1 37.25 133.22
  L 37.25 127.25
  Q 37.25 126.88 37.62 126.82
  L 39.49 126.53
  Q 66.67 127.04 93.82 126.61
  Q 99.66 126.51 105.57 125.38
  Q 130.22 120.64 155.07 116.14
  Z
  M 56.32 194.75
  C 57.86 192.74 64.66 186.80 67.35 186.04
  Q 67.83 185.90 68.28 186.10
  Q 70.06 186.89 71.99 186.99
  Q 72.34 187.00 72.45 186.77
  Q 72.64 186.37 72.20 186.33
  L 69.31 186.09
  A 0.51 0.51 0.0 0 1 68.95 185.28
  L 69.53 184.51
  A 0.49 0.49 0.0 0 0 68.86 183.81
  L 59.23 190.51
  A 0.63 0.62 63.0 0 1 58.28 190.20
  L 57.27 187.13
  Q 57.10 186.61 56.62 186.89
  Q 56.37 187.03 56.31 187.32
  Q 56.25 187.61 56.50 188.04
  Q 57.34 189.43 57.95 190.98
  A 0.91 0.91 0.0 0 1 57.81 191.88
  Q 56.04 194.04 53.17 195.90
  Q 52.38 196.41 52.09 197.51
  Q 51.86 198.37 52.44 197.69
  C 54.57 195.15 59.06 197.22 62.28 196.59
  A 0.33 0.33 0.0 0 0 62.26 195.93
  L 56.50 195.18
  Q 56.04 195.12 56.32 194.75
  Z"
/>
<path fill="#b9b3b8" d="
  M 221.82 116.79
  A 0.47 0.47 0.0 0 1 222.74 116.71
  Q 222.95 117.64 222.37 118.30
  A 0.36 0.35 -22.8 0 1 221.75 118.05
  L 221.82 116.79
  Z"
/>
<path fill="#b9b3b8" d="
  M 216.74 119.74
  Q 217.07 119.13 217.84 119.87
  A 0.56 0.56 0.0 0 1 217.73 120.75
  Q 217.30 121.01 216.69 120.56
  Q 216.52 120.43 216.50 120.29
  Q 216.49 120.18 216.55 120.08
  A 1.06 0.12 -67.1 0 0 216.74 119.74
  Z"
/>
<path fill="#b9b3b8" d="
  M 230.70 130.18
  L 230.81 129.68
  Q 232.57 128.09 233.87 128.66
  Q 234.79 129.06 233.82 129.33
  L 230.70 130.18
  Z"
/>
<path fill="#78bfb1" d="
  M 174.93 155.71
  L 188.22 155.98
  L 222.87 156.55
  Q 222.80 160.93 224.21 164.50
  L 200.58 164.51
  L 190.39 164.58
  L 179.75 164.65
  L 174.93 155.71
  Z"
/>
<path fill="#9b7368" d="
  M 234.94 161.06
  Q 234.64 160.91 234.76 160.50
  A 0.30 0.29 -49.7 0 1 235.31 160.45
  L 236.31 162.69
  Q 238.24 167.04 235.87 162.83
  Q 235.84 162.76 234.94 161.06
  Z"
/>
<path fill="#b9b3b8" d="
  M 231.86 168.66
  C 230.06 166.81 228.16 165.40 226.97 162.82
  Q 226.65 162.15 227.20 162.65
  Q 230.10 165.34 231.86 168.66
  Z"
/>
<rect fill="#cdb1aa" x="-0.45" y="-3.82" transform="translate(233.35,165.31) rotate(-38.7)" width="0.90" height="7.64" rx="0.26"/>
<path fill="#2f6858" d="
  M 200.58 164.51
  L 200.56 188.18
  L 200.53 218.40
  L 192.50 218.52
  Q 192.40 208.29 190.71 198.25
  L 190.50 194.54
  L 192.50 189.27
  Q 192.70 188.75 192.46 188.25
  L 190.14 183.46
  L 190.39 164.58
  L 200.58 164.51
  Z"
/>
<path fill="#5ba092" d="
  M 37.95 197.66
  Q 38.23 198.18 37.49 198.36
  C 30.54 199.12 22.76 195.98 17.01 192.35
  A 1.28 1.26 -68.5 0 1 16.45 191.04
  L 17.60 185.09
  A 0.45 0.45 0.0 0 0 16.79 184.74
  L 13.70 189.01
  A 0.44 0.44 0.0 0 1 13.07 189.09
  L 1.10 179.26
  Q 0.59 178.84 1.14 178.47
  C 11.75 171.32 23.46 169.11 33.47 178.88
  A 1.01 1.00 28.0 0 1 33.76 179.82
  Q 33.54 180.84 32.66 181.41
  Q 32.28 181.66 32.47 182.08
  L 32.63 182.43
  Q 32.81 182.81 33.15 182.57
  L 34.52 181.59
  A 0.67 0.67 0.0 0 1 35.52 181.84
  Q 39.28 189.44 37.95 197.66
  Z
  M 36.25 194.45
  Q 35.66 192.06 35.71 189.07
  Q 35.72 188.42 35.20 188.16
  Q 34.62 187.88 34.76 188.51
  L 35.29 191.00
  A 0.53 0.53 0.0 0 1 34.31 191.38
  Q 32.20 187.82 29.18 184.83
  C 26.41 182.09 23.16 181.55 22.39 176.46
  Q 22.31 175.89 22.08 175.63
  Q 21.71 175.20 21.19 175.19
  Q 20.74 175.18 20.89 175.61
  L 22.23 179.29
  A 0.43 0.43 0.0 0 1 21.70 179.85
  Q 19.25 179.11 16.75 178.51
  Q 16.52 178.46 16.33 178.81
  A 0.28 0.28 0.0 0 0 16.53 179.22
  Q 25.11 180.78 30.40 187.65
  A 0.53 0.52 71.0 0 1 29.99 188.50
  L 24.75 188.50
  A 0.73 0.70 75.0 0 0 24.16 189.58
  Q 24.24 189.72 24.58 189.84
  Q 24.79 189.91 25.05 189.89
  Q 28.06 189.59 31.09 189.17
  Q 31.61 189.10 31.98 189.47
  Q 34.58 192.07 35.98 195.51
  A 0.42 0.41 36.3 0 0 36.78 195.39
  Q 36.83 194.79 36.57 194.75
  Q 36.31 194.71 36.25 194.45
  Z"
/>
<path fill="#9b7368" d="
  M 277.72 176.51
  C 275.72 180.98 272.30 192.06 275.86 196.24
  Q 276.22 196.67 276.67 196.34
  C 279.79 194.05 281.74 186.41 283.18 183.48
  L 285.67 189.75
  Q 285.85 190.21 286.34 190.22
  L 302.52 190.80
  L 300.86 194.26
  A 1.50 1.48 57.5 0 0 300.73 194.87
  Q 300.83 200.97 306.09 203.67
  A 1.49 1.47 -38.2 0 0 307.14 203.79
  C 313.61 202.14 314.03 198.61 316.75 193.29
  Q 319.94 194.85 322.47 197.34
  C 327.10 201.89 335.75 204.49 341.99 206.18
  A 0.81 0.81 0.0 0 1 342.12 207.69
  C 338.66 209.30 330.83 206.68 327.11 205.81
  Q 326.58 205.69 326.65 206.22
  Q 328.21 218.00 325.55 229.43
  C 324.98 231.90 323.64 232.65 321.47 231.16
  Q 321.00 230.84 321.00 230.28
  L 321.00 220.27
  A 0.58 0.57 -1.4 0 0 320.39 219.70
  Q 319.54 219.74 319.44 220.53
  Q 318.96 224.73 318.65 228.97
  C 318.49 231.24 317.25 232.30 315.06 231.33
  Q 314.66 231.15 314.64 230.71
  L 313.98 215.49
  Q 313.95 214.91 313.39 215.03
  C 303.50 217.05 294.03 219.23 283.89 219.65
  A 0.42 0.41 -87.6 0 0 283.49 220.02
  L 282.20 231.45
  A 1.67 1.66 80.4 0 1 281.26 232.78
  Q 279.34 233.71 278.88 231.79
  Q 277.62 226.47 276.41 221.51
  A 0.94 0.93 -16.0 0 0 275.20 220.85
  Q 274.88 220.96 274.62 221.39
  Q 274.44 221.69 274.44 222.15
  Q 274.40 227.34 273.75 231.79
  A 1.92 1.91 -45.9 0 1 269.97 231.85
  L 264.39 199.70
  Q 264.32 199.27 264.01 198.95
  L 258.82 193.47
  L 256.04 188.44
  C 253.02 175.26 268.67 170.48 277.72 176.51
  Z
  M 268.3931 180.0953
  A 1.69 1.07 107.1 0 0 269.9127 178.7946
  A 1.69 1.07 107.1 0 0 269.3869 176.8647
  A 1.69 1.07 107.1 0 0 267.8673 178.1654
  A 1.69 1.07 107.1 0 0 268.3931 180.0953
  Z
  M 259.96 181.67
  L 261.31 179.64
  A 0.43 0.42 22.0 0 0 261.03 178.99
  L 260.00 178.78
  A 0.68 0.68 0.0 0 0 259.20 179.59
  Q 259.78 182.38 257.16 182.69
  Q 256.96 182.72 256.87 182.80
  Q 256.72 182.92 256.72 183.11
  Q 256.72 183.84 257.40 183.57
  L 259.26 182.81
  Q 259.73 182.61 260.17 182.88
  Q 261.75 183.87 263.42 183.68
  Q 263.78 183.64 263.78 183.29
  Q 263.78 182.83 263.33 182.80
  L 260.44 182.63
  Q 259.37 182.57 259.96 181.67
  Z
  M 295.7977 207.2980
  A 3.75 3.42 -30.3 0 0 290.8345 206.2372
  A 3.75 3.42 -30.3 0 0 289.3223 211.0820
  A 3.75 3.42 -30.3 0 0 294.2855 212.1428
  A 3.75 3.42 -30.3 0 0 295.7977 207.2980
  Z"
/>
<path fill="#2f6858" d="
  M 36.57 194.75
  Q 36.83 194.79 36.78 195.39
  A 0.42 0.41 36.3 0 1 35.98 195.51
  Q 34.58 192.07 31.98 189.47
  Q 31.61 189.10 31.09 189.17
  Q 28.06 189.59 25.05 189.89
  Q 24.79 189.91 24.58 189.84
  Q 24.24 189.72 24.16 189.58
  A 0.73 0.70 75.0 0 1 24.75 188.50
  L 29.99 188.50
  A 0.53 0.52 71.0 0 0 30.40 187.65
  Q 25.11 180.78 16.53 179.22
  A 0.28 0.28 0.0 0 1 16.33 178.81
  Q 16.52 178.46 16.75 178.51
  Q 19.25 179.11 21.70 179.85
  A 0.43 0.43 0.0 0 0 22.23 179.29
  L 20.89 175.61
  Q 20.74 175.18 21.19 175.19
  Q 21.71 175.20 22.08 175.63
  Q 22.31 175.89 22.39 176.46
  C 23.16 181.55 26.41 182.09 29.18 184.83
  Q 32.20 187.82 34.31 191.38
  A 0.53 0.53 0.0 0 0 35.29 191.00
  L 34.76 188.51
  Q 34.62 187.88 35.20 188.16
  Q 35.72 188.42 35.71 189.07
  Q 35.66 192.06 36.25 194.45
  Q 36.31 194.71 36.57 194.75
  Z"
/>
<ellipse fill="#010101" cx="0.00" cy="0.00" transform="translate(268.89,178.48) rotate(107.1)" rx="1.69" ry="1.07"/>
<path fill="#6d4038" d="
  M 277.72 176.51
  Q 281.75 179.96 283.18 183.48
  C 281.74 186.41 279.79 194.05 276.67 196.34
  Q 276.22 196.67 275.86 196.24
  C 272.30 192.06 275.72 180.98 277.72 176.51
  Z"
/>
<path fill="#010101" d="
  M 260.44 182.63
  L 263.33 182.80
  Q 263.78 182.83 263.78 183.29
  Q 263.78 183.64 263.42 183.68
  Q 261.75 183.87 260.17 182.88
  Q 259.73 182.61 259.26 182.81
  L 257.40 183.57
  Q 256.72 183.84 256.72 183.11
  Q 256.72 182.92 256.87 182.80
  Q 256.96 182.72 257.16 182.69
  Q 259.78 182.38 259.20 179.59
  A 0.68 0.68 0.0 0 1 260.00 178.78
  L 261.03 178.99
  A 0.43 0.42 22.0 0 1 261.31 179.64
  L 259.96 181.67
  Q 259.37 182.57 260.44 182.63
  Z"
/>
<path fill="#2f6858" d="
  M 56.50 195.18
  L 62.26 195.93
  A 0.33 0.33 0.0 0 1 62.28 196.59
  C 59.06 197.22 54.57 195.15 52.44 197.69
  Q 51.86 198.37 52.09 197.51
  Q 52.38 196.41 53.17 195.90
  Q 56.04 194.04 57.81 191.88
  A 0.91 0.91 0.0 0 0 57.95 190.98
  Q 57.34 189.43 56.50 188.04
  Q 56.25 187.61 56.31 187.32
  Q 56.37 187.03 56.62 186.89
  Q 57.10 186.61 57.27 187.13
  L 58.28 190.20
  A 0.63 0.62 63.0 0 0 59.23 190.51
  L 68.86 183.81
  A 0.49 0.49 0.0 0 1 69.53 184.51
  L 68.95 185.28
  A 0.51 0.51 0.0 0 0 69.31 186.09
  L 72.20 186.33
  Q 72.64 186.37 72.45 186.77
  Q 72.34 187.00 71.99 186.99
  Q 70.06 186.89 68.28 186.10
  Q 67.83 185.90 67.35 186.04
  C 64.66 186.80 57.86 192.74 56.32 194.75
  Q 56.04 195.12 56.50 195.18
  Z"
/>
<path fill="#fff5ee" d="
  M 92.00 187.93
  L 98.63 222.70
  Q 98.16 227.14 101.35 227.30
  Q 103.18 227.31 103.58 226.03
  Q 104.37 224.49 103.74 222.72
  L 97.31 188.02
  L 124.95 188.15
  L 123.75 194.29
  A 2.56 2.56 0.0 0 0 125.69 197.27
  C 129.49 198.13 129.71 190.62 130.13 188.27
  L 168.00 188.21
  Q 168.61 188.53 168.83 189.18
  Q 170.94 195.52 173.36 201.74
  Q 173.54 202.21 174.03 202.27
  L 176.34 202.59
  Q 179.41 211.69 185.79 218.63
  C 177.22 218.37 166.59 216.04 164.77 225.00
  Q 160.61 226.50 162.18 230.67
  Q 162.34 231.09 162.71 231.34
  C 168.12 235.13 171.83 227.74 167.00 225.46
  Q 167.39 224.44 168.25 224.86
  Q 168.70 225.08 169.20 225.08
  L 211.90 225.15
  L 203.92 232.86
  Q 203.54 233.22 203.02 233.22
  L 54.03 233.23
  Q 54.99 230.15 54.25 226.79
  Q 55.03 222.17 53.54 217.75
  Q 53.38 217.09 53.62 216.53
  L 50.93 209.91
  L 92.00 187.93
  Z
  M 199.27 228.84
  A 3.75 3.75 0.0 0 0 195.52 225.09
  A 3.75 3.75 0.0 0 0 191.77 228.84
  A 3.75 3.75 0.0 0 0 195.52 232.59
  A 3.75 3.75 0.0 0 0 199.27 228.84
  Z"
/>
<path fill="#fff5ee" d="
  M 200.56 188.18
  L 251.23 188.12
  Q 251.96 188.12 251.43 188.62
  L 219.62 218.36
  L 200.53 218.40
  L 200.56 188.18
  Z"
/>
<path fill="#6d4038" d="
  M 256.04 188.44
  L 258.82 193.47
  L 256.12 200.44
  A 1.58 1.57 27.6 0 1 253.77 201.17
  C 249.90 198.55 254.06 190.74 256.04 188.44
  Z"
/>
<path fill="#f7d3bb" d="
  M 302.52 190.80
  Q 309.99 190.45 316.75 193.29
  C 314.03 198.61 313.61 202.14 307.14 203.79
  A 1.49 1.47 -38.2 0 1 306.09 203.67
  Q 300.83 200.97 300.73 194.87
  A 1.50 1.48 57.5 0 1 300.86 194.26
  L 302.52 190.80
  Z"
/>
<path fill="#e3d4c5" d="
  M 190.50 194.54
  L 190.71 198.25
  L 187.75 197.46
  L 190.50 194.54
  Z"
/>
<path fill="#ed725c" d="
  M 187.75 197.46
  L 190.71 198.25
  Q 192.40 208.29 192.50 218.52
  C 190.42 221.94 188.18 220.10 185.79 218.63
  Q 179.41 211.69 176.34 202.59
  Q 182.84 201.54 187.75 197.46
  Z"
/>
<path fill="#010101" d="
  M 37.95 197.66
  L 39.68 201.87
  Q 40.10 202.87 39.32 202.11
  Q 38.27 201.09 38.36 199.46
  Q 38.42 198.42 37.49 198.36
  Q 38.23 198.18 37.95 197.66
  Z"
/>
<path fill="#ed725c" d="
  M 41.79 203.30
  L 43.78 204.20
  Q 42.92 205.78 41.40 206.45
  A 0.46 0.46 0.0 0 1 40.75 205.99
  Q 40.78 205.54 40.73 205.09
  A 0.35 0.35 0.0 0 0 40.03 205.16
  L 40.33 208.30
  A 0.65 0.64 88.0 0 1 39.68 209.00
  Q 38.46 208.99 38.07 210.09
  Q 37.84 210.73 38.50 210.58
  L 41.24 209.94
  Q 41.82 209.80 41.88 209.21
  Q 42.15 206.65 44.59 205.15
  Q 45.85 204.19 46.69 205.65
  L 50.93 209.91
  L 53.62 216.53
  C 44.93 211.92 41.81 228.91 52.68 227.68
  Q 53.26 227.62 53.79 226.75
  L 54.25 226.79
  Q 54.99 230.15 54.03 233.23
  L 41.00 233.21
  C 41.10 224.87 29.90 225.46 30.17 233.41
  L 22.75 233.21
  Q 23.36 229.13 22.46 225.06
  L 23.32 223.84
  C 30.01 224.60 31.37 215.19 24.68 213.15
  Q 29.81 202.47 41.79 203.30
  Z"
/>
<path fill="#9b7368" d="
  M 43.78 204.20
  L 44.59 205.15
  Q 42.15 206.65 41.88 209.21
  Q 41.82 209.80 41.24 209.94
  L 38.50 210.58
  Q 37.84 210.73 38.07 210.09
  Q 38.46 208.99 39.68 209.00
  A 0.65 0.64 88.0 0 0 40.33 208.30
  L 40.03 205.16
  A 0.35 0.35 0.0 0 1 40.73 205.09
  Q 40.78 205.54 40.75 205.99
  A 0.46 0.46 0.0 0 0 41.40 206.45
  Q 42.92 205.78 43.78 204.20
  Z"
/>
<ellipse fill="#f7d3bb" cx="0.00" cy="0.00" transform="translate(292.56,209.19) rotate(-30.3)" rx="3.75" ry="3.42"/>
<path fill="#ffffff" d="
  M 24.68 213.15
  C 31.37 215.19 30.01 224.60 23.32 223.84
  Q 22.60 217.97 24.68 213.15
  Z"
/>
<path fill="#ffffff" d="
  M 53.62 216.53
  Q 53.38 217.09 53.54 217.75
  Q 54.37 222.26 53.79 226.75
  Q 53.26 227.62 52.68 227.68
  C 41.81 228.91 44.93 211.92 53.62 216.53
  Z"
/>
<path fill="#e3d4c5" d="
  M 53.54 217.75
  Q 55.03 222.17 54.25 226.79
  L 53.79 226.75
  Q 54.37 222.26 53.54 217.75
  Z"
/>
<path fill="#5ba092" d="
  M 200.53 218.40
  L 219.62 218.36
  Q 225.22 219.62 225.99 224.52
  Q 224.30 224.76 223.69 225.23
  L 211.90 225.15
  L 169.20 225.08
  Q 168.70 225.08 168.25 224.86
  Q 167.39 224.44 167.00 225.46
  L 164.77 225.00
  C 166.59 216.04 177.22 218.37 185.79 218.63
  C 188.18 220.10 190.42 221.94 192.50 218.52
  L 200.53 218.40
  Z"
/>
<path fill="#97c1e9" d="
  M 98.63 222.70
  Q 99.07 225.85 101.35 227.30
  Q 98.16 227.14 98.63 222.70
  Z"
/>
<path fill="#cdb1aa" d="
  M 103.74 222.72
  Q 104.37 224.49 103.58 226.03
  Q 103.26 224.24 103.74 222.72
  Z"
/>
<path fill="#2f6858" d="
  M 225.99 224.52
  Q 231.37 228.18 228.09 231.37
  C 224.18 235.17 219.16 229.62 223.69 225.23
  Q 224.30 224.76 225.99 224.52
  Z"
/>
<path fill="#2f6858" d="
  M 164.77 225.00
  L 167.00 225.46
  C 171.83 227.74 168.12 235.13 162.71 231.34
  Q 162.34 231.09 162.18 230.67
  Q 160.61 226.50 164.77 225.00
  Z"
/>
<path fill="#fff5ee" d="
  M 22.46 225.06
  Q 23.36 229.13 22.75 233.21
  L 7.82 233.23
  A 0.24 0.24 0.0 0 1 7.71 232.77
  L 22.46 225.06
  Z"
/>
<circle fill="#2f6858" cx="195.52" cy="228.84" r="3.75"/>
<path fill="#ffffff" d="
  M 41.00 233.21
  L 30.17 233.41
  C 29.90 225.46 41.10 224.87 41.00 233.21
  Z"
/>
</svg>
